<?xml version="1.0" encoding="utf-8"?>
<!-- Generator: Adobe Illustrator 21.0.1, SVG Export Plug-In . SVG Version: 6.00 Build 0)  -->
<svg version="1.1" id="svg1936" xmlns:svg="http://www.w3.org/2000/svg"
	 xmlns="http://www.w3.org/2000/svg" xmlns:xlink="http://www.w3.org/1999/xlink" x="0px" y="0px" viewBox="0 0 618.3 195.7"
	 style="enable-background:new 0 0 618.3 195.7;" xml:space="preserve">
<style type="text/css">
	.st0{fill:#FFFCE0;}
	.st1{fill:#D9D7BF;}
</style>
<g id="layer1" transform="translate(151.616,-642.7961)">
	<g id="g1967" transform="translate(7.081691,7.081144)">
		<path id="path8" class="st0" d="M222,784.7c-35,25.8-85.7,39.6-129.4,39.6c-61.2,0-116.4-22.7-158.1-60.3c-3.3-3-0.3-7,3.6-4.7
			c45,26.2,100.7,41.9,158.2,41.9c38.8,0,81.4-8,120.6-24.7C222.9,774,227.8,780.4,222,784.7"/>
		<path id="path10" class="st0" d="M236.6,768.1c-4.5-5.7-29.6-2.7-40.8-1.4c-3.4,0.4-4-2.6-0.9-4.7c20-14.1,52.8-10,56.7-5.3
			c3.8,4.7-1,37.6-19.8,53.4c-2.9,2.4-5.6,1.1-4.4-2.1C231.6,797.5,241.1,773.8,236.6,768.1"/>
		<path id="path12" class="st1" d="M196.5,662.6v-13.7c0-2.1,1.6-3.5,3.5-3.5h61.3c2,0,3.5,1.4,3.5,3.5v11.7c0,2-1.7,4.5-4.6,8.6
			l-31.7,45.3c11.8-0.3,24.2,1.5,34.9,7.5c2.4,1.4,3.1,3.4,3.2,5.3V742c0,2-2.2,4.3-4.5,3.1c-18.9-9.9-43.9-11-64.7,0.1
			c-2.1,1.2-4.4-1.2-4.4-3.1v-13.9c0-2.2,0-6,2.3-9.4l36.8-52.7h-32C198.1,666,196.5,664.7,196.5,662.6"/>
		<path id="path14" class="st1" d="M-27,748h-18.6c-1.8-0.1-3.2-1.5-3.3-3.2v-95.7c0-1.9,1.6-3.4,3.6-3.4H-28
			c1.8,0.1,3.3,1.5,3.4,3.2v12.5h0.3c4.5-12.1,13.1-17.7,24.5-17.7c11.7,0,19,5.6,24.2,17.7c4.5-12.1,14.8-17.7,25.7-17.7
			c7.8,0,16.4,3.2,21.6,10.5c5.9,8,4.7,19.7,4.7,30l0,60.4c0,1.9-1.6,3.5-3.6,3.5H54.3c-1.9-0.1-3.4-1.6-3.4-3.5v-50.7
			c0-4,0.4-14.1-0.5-17.9c-1.4-6.4-5.6-8.2-11-8.2c-4.5,0-9.2,3-11.1,7.8s-1.7,12.9-1.7,18.3v50.7c0,1.9-1.6,3.5-3.6,3.5H4.3
			c-1.9-0.1-3.4-1.6-3.4-3.5l0-50.7c0-10.7,1.8-26.4-11.5-26.4c-13.4,0-12.9,15.3-12.9,26.4v50.7C-23.4,746.5-25,748-27,748"/>
		<path id="path16" class="st1" d="M317.5,643.7c27.7,0,42.6,23.8,42.6,54c0,29.2-16.5,52.3-42.6,52.3c-27.2,0-41.9-23.8-41.9-53.4
			C275.6,666.9,290.6,643.7,317.5,643.7 M317.7,663.2c-13.7,0-14.6,18.7-14.6,30.4c0,11.7-0.2,36.7,14.4,36.7
			c14.4,0,15.1-20.1,15.1-32.4c0-8.1-0.3-17.7-2.8-25.4C327.8,665.8,323.6,663.2,317.7,663.2"/>
		<path id="path18" class="st1" d="M396,748h-18.6c-1.9-0.1-3.4-1.6-3.4-3.5l0-95.7c0.2-1.8,1.7-3.1,3.6-3.1H395
			c1.6,0.1,3,1.2,3.3,2.7V663h0.3c5.2-13.1,12.5-19.3,25.4-19.3c8.4,0,16.5,3,21.8,11.3c4.9,7.7,4.9,20.5,4.9,29.8V745
			c-0.2,1.7-1.8,3-3.6,3h-18.7c-1.7-0.1-3.1-1.4-3.3-3v-52c0-10.5,1.2-25.8-11.7-25.8c-4.5,0-8.7,3-10.8,7.7c-2.6,5.8-3,11.7-3,18.1
			v51.5C399.6,746.5,398,748,396,748"/>
		<path class="st1" d="M180.9,730.5c-3.4-4.7-7-8.5-7-17.3v-29c0-12.3,0.9-23.6-8.2-32.1c-7.2-6.9-19-9.3-28.1-9.3
			c-17.7,0-37.5,6.6-41.7,28.5c-0.4,2.3,1.3,3.6,2.8,3.9l18.1,1.9c1.7-0.1,2.9-1.7,3.3-3.4c1.5-7.5,7.9-11.2,15-11.2
			c3.9,0,8.2,1.4,10.5,4.8c2.6,3.8,2.3,9.1,2.3,13.5v2.4c-10.8,1.2-24.9,2-35.1,6.5c-11.7,5-19.9,15.3-19.9,30.5
			c0,19.4,12.2,29,27.9,29c13.2,0,20.5-3.1,30.7-13.6c3.4,4.9,4.5,7.3,10.7,12.4c1.4,0.7,3.2,0.7,4.4-0.4l0,0.1
			c3.7-3.3,10.5-9.2,14.3-12.4C182.3,734.2,182,732.1,180.9,730.5z M144.2,722.1c-3,5.2-7.7,8.5-12.9,8.5c-7.2,0-11.4-5.5-11.4-13.5
			c0-15.9,14.2-18.8,27.7-18.8v4C147.7,709.6,147.9,715.6,144.2,722.1z"/>
		<path class="st1" d="M-63.5,730.5c-3.4-4.7-7-8.5-7-17.3v-29c0-12.3,0.9-23.6-8.2-32.1c-7.2-6.9-19-9.3-28.1-9.3
			c-17.7,0-37.5,6.6-41.7,28.5c-0.4,2.3,1.3,3.6,2.8,3.9l18.1,1.9c1.7-0.1,2.9-1.7,3.2-3.4c1.5-7.5,7.9-11.2,15-11.2
			c3.8,0,8.2,1.4,10.5,4.8c2.6,3.8,2.3,9.1,2.3,13.5v2.4c-10.8,1.2-24.9,2-35.1,6.5c-11.7,5-19.9,15.3-19.9,30.5
			c0,19.4,12.2,29,27.9,29c13.3,0,20.5-3.1,30.7-13.6c3.4,4.9,4.5,7.3,10.7,12.4c1.4,0.7,3.2,0.7,4.4-0.4l0.1,0.1
			c3.7-3.3,10.5-9.2,14.3-12.4C-62,734.2-62.3,732.1-63.5,730.5z M-100.2,722.1c-3,5.2-7.7,8.5-12.9,8.5c-7.2,0-11.3-5.5-11.3-13.5
			c0-15.9,14.2-18.8,27.7-18.8v4C-96.7,709.6-96.5,715.6-100.2,722.1z"/>
	</g>
</g>
</svg>
