<?xml version="1.0" encoding="utf-8"?>
<!-- Generator: Adobe Illustrator 21.0.1, SVG Export Plug-In . SVG Version: 6.00 Build 0)  -->
<svg version="1.1" id="Calque_3" xmlns="http://www.w3.org/2000/svg" xmlns:xlink="http://www.w3.org/1999/xlink" x="0px" y="0px"
	 viewBox="0 0 447.2 140.4" style="enable-background:new 0 0 447.2 140.4;" xml:space="preserve">
<style type="text/css">
	.st0{fill:#D9D7BF;}
</style>
<g>
	<path class="st0" d="M329.9,139.4c0-17.5,0-34.8,0-52.2c0.4,0,0.9-0.1,1.3-0.1c16.1,0,32.1-0.1,48.2,0.1c12.5,0.1,24.9,1.2,37,4.3
		c6.2,1.6,12.2,3.7,17.5,7.4c4.1,2.9,7.3,6.6,8.3,11.7c1.3,6.3-1,11.3-5.7,15.5c-5,4.4-11,6.9-17.2,8.8c-11,3.3-22.3,4.4-33.7,4.5
		c-18.2,0.1-36.4,0-54.6,0C330.7,139.5,330.3,139.5,329.9,139.4z M372.4,103.5c0,6.8,0,13.5,0,20.2c0.2,0,0.4,0.1,0.6,0.1
		c4.7-0.3,9.4-0.4,14-0.9c3.4-0.4,6.8-1.3,9.7-3.3c4.1-2.8,4.4-7.9,0.6-11.1c-1.2-1-2.6-1.8-4.1-2.4
		C386.6,103.5,379.6,103.6,372.4,103.5z"/>
	<path class="st0" d="M297.1,114.3c0-0.9,0-1.4,0-2c0-7.9,0-15.8,0-23.7c0-1.2,0.3-1.5,1.5-1.5c8.3,0.1,16.6,0,25,0
		c0.5,0,0.9,0,1.5,0c0,17.5,0,34.8,0,52.3c-0.4,0-0.8,0.1-1.2,0.1c-8.5,0-17,0-25.5,0c-0.9,0-1.4-0.3-2-0.9
		c-7.6-8.2-15.2-16.3-22.8-24.5c-0.3-0.3-0.5-0.8-0.8-1.1c-0.1,0.1-0.3,0.2-0.4,0.3c0,8.7,0,17.4,0,26.1c-9.4,0-18.6,0-28,0
		c0-17.4,0-34.7,0-52.2c0.4,0,0.9-0.1,1.3-0.1c8.5,0,17,0,25.5,0c0.9,0,1.6,0.3,2.2,1c7.6,8.4,15.2,16.7,22.8,25.1
		C296.4,113.5,296.6,113.7,297.1,114.3z"/>
	<path class="st0" d="M199.1,140.4c-9-0.1-17.9-1.4-26.1-5.4c-5.5-2.6-10.1-6.2-13.1-11.7c-4.6-8.7-2.6-18.9,5.1-26
		c5.4-4.9,11.9-7.7,18.9-9.3c13.5-3,26.8-2.4,39.7,3c5.4,2.3,10,5.5,13.4,10.4c6.3,9,4.8,20.5-3.5,28.2c-4.7,4.3-10.4,6.8-16.5,8.5
		C211.1,139.7,205.1,140.3,199.1,140.4z M199.2,103.5c-3.7,0.1-7,0.7-9.9,2.7c-5.9,4.1-5.7,11.9,0.6,15.3c6.2,3.3,12.7,3.3,18.8-0.2
		c5.9-3.4,6.1-10.9,0.6-14.9C206.2,104.2,202.6,103.6,199.2,103.5z"/>
	<path class="st0" d="M39.1,112.5c1.1,0.5,2.1,0.9,3,1.3c4.4,2.3,7,5.7,7.2,10.8c0.1,5.1-2.1,9-6.5,11.5c-3.9,2.2-8.1,3.2-12.5,3.2
		c-9.8,0.1-19.6,0.1-29.3,0.1c-0.2,0-0.5-0.1-0.8-0.1c0-17.4,0-34.7,0-52.2C0.5,87.1,0.7,87,1,87c8.4,0,16.8,0,25.2,0
		c4.1,0,8.1,0.5,11.9,2c6.9,2.6,10.2,9.2,8.1,16c-1,3.1-2.9,5.4-6,6.7c-0.2,0.1-0.5,0.2-0.7,0.3C39.3,112.2,39.3,112.3,39.1,112.5z
		 M19.5,127.3c2.7-0.3,5.3-0.4,7.8-0.9c1.9-0.4,2.8-1.9,2.7-3.7c0-1.8-1-3-2.8-3.6c-2.5-0.8-5.2-0.5-7.8-0.6
		C19.5,121.3,19.5,124.1,19.5,127.3z M19.5,99.7c0,2.7,0,5.1,0,7.8c2.1-0.3,4.2-0.4,6.1-0.9c1.6-0.4,2.2-1.8,2.1-3.6
		c-0.1-1.6-0.9-2.7-2.6-3C23.3,99.8,21.4,99.8,19.5,99.7z"/>
	<path class="st0" d="M75.6,106.5c5.9,0,11.5,0,17.3,0c0,4.6,0,9,0,13.6c-5.8,0-11.5,0-17.4,0c0,1.6-0.1,3,0.1,4.5
		c0,0.2,0.7,0.6,1.1,0.6c4.6,0,9.2,0,13.8,0c1.5,0,3.1,0,4.7,0c0,4.8,0,9.5,0,14.2c-14.1,0-28.3,0-42.5,0c0-17.4,0-34.7,0-52.2
		c13.9,0,27.8,0,41.8,0c0,4.7,0,9.4,0,14.2c-6.4,0-12.6,0-19,0C75.6,103.2,75.6,104.7,75.6,106.5z"/>
	<path class="st0" d="M95.3,87.2c9.6,0,18.8,0,28,0c0.5,0,1.1,0.5,1.3,0.9c2.3,3.9,4.5,7.8,6.8,11.8c0.2,0.4,0.6,0.6,0.9,1
		c0.3-0.4,0.6-0.7,0.8-1.1c2.2-4,4.3-7.9,6.5-11.9c0.2-0.3,0.7-0.7,1.1-0.7c9.1,0,18.3,0,27.4,0c0.1,0,0.1,0.1,0.4,0.2
		c-0.3,0.4-0.6,0.8-0.9,1.2c-7.4,9.2-14.8,18.3-22.1,27.5c-0.4,0.5-0.7,1.4-0.7,2.1c-0.1,6.6,0,13.1,0,19.6c0,0.5,0,1,0,1.6
		c-8.3,0-16.6,0-24.9,0c0-0.4-0.1-0.7-0.1-1.1c0-6.6,0-13.2,0-19.8c0-1.1-0.3-2-1-2.8c-7.5-9.1-15-18.2-22.5-27.4
		C96,88,95.7,87.7,95.3,87.2z"/>
	<path class="st0" d="M408.9,33.1c4.8,5.8,9.5,11.6,14.4,17.5c2.7-3.1,5.3-6.2,7.7-9c1.9,1.8,3.8,3.5,5.8,5.3
		c-2.8,3.4-5.6,6.6-8.4,10c4,5,8.1,10.1,12.3,15.3c-3.6,0-6.9,0-10.2,0c-0.4,0-0.8-0.5-1.1-0.8c-2.2-2.8-4.5-5.6-6.7-8.4
		c-1.1,1.1-2.1,2.1-3.1,3c-5.4,5-11.6,8.1-19.2,7.6c-13.1-0.8-22.1-12.9-18.9-25.1c1-3.8,3.3-6.9,6.2-9.5c3-2.5,6.1-4.9,9.3-7.3
		c-0.8-1-1.7-2-2.5-3c-2.4-3-4.3-6.2-4.8-10c-1.3-10,5.5-17.4,15.9-17.3c3.6,0.1,7,1,10,3.1c6.3,4.4,7.6,12.9,3.1,19.5
		c-2.2,3.2-5.2,5.6-8.2,8C410.1,32.3,409.5,32.7,408.9,33.1z M402.1,37.8c-3.2,2.6-6.4,5-9.4,7.6c-1.7,1.4-2.9,3.3-3.4,5.5
		c-2.1,7.8,6.3,16.4,14.6,14.8c5.8-1.1,9.7-5.1,13.7-9C412.5,50.5,407.4,44.3,402.1,37.8z M404.1,27.5c2.7-2.4,5.3-4.4,7.4-6.8
		c2.5-2.8,2.4-7.2,0.2-9.9c-2.2-2.6-6.9-3.4-10.1-1.7c-3.6,1.9-5.1,6.1-3.1,10C400,21.9,402.1,24.5,404.1,27.5z"/>
	<path class="st0" d="M90.1,72.1c0-23.1,0-46.1,0-69.1c0.2-0.1,0.3-0.2,0.5-0.2c6.8,0.1,13.6-0.1,20.4,0.5
		c8.2,0.7,15.7,3.6,21.9,9.2c5.6,5.1,8.7,11.5,9.7,18.9c1,7.9,0.3,15.7-3.5,22.9c-4.3,8.2-11.2,13-19.8,15.7
		c-4.2,1.3-8.5,2-12.8,2.1c-5.1,0.1-10.3,0-15.4,0.1C90.7,72.2,90.4,72.1,90.1,72.1z M98.6,64.3c6.1,0.2,12-0.2,17.8-2
		c5.6-1.7,10.4-4.6,13.7-9.5c3.4-5.1,4.4-10.8,4.1-16.8c-0.4-10.7-5.3-18.5-15.5-22.4c-6.4-2.5-13.1-3-19.8-2.8
		c-0.1,0-0.2,0.1-0.3,0.2C98.6,28.7,98.6,46.4,98.6,64.3z"/>
	<path class="st0" d="M0,72.1c0-23,0-46,0-69C0.2,3,0.3,2.9,0.4,2.9C6,3.1,11.6,3.2,17.2,3.6c1.9,0.1,3.9,0.9,5.7,1.5
		c12.2,4.3,12.8,19.3,7.8,26c-1.2,1.5-2.7,2.8-4.1,4.2c2.4,0.6,4.7,1.7,6.8,3.4c9.5,7.8,9.5,25.3-4.5,31.1
		c-3.4,1.4-6.9,2.2-10.5,2.3c-6,0.1-11.9,0.1-17.7,0.1C0.5,72.2,0.3,72.1,0,72.1z M8.7,40.5c0,8.1,0,16,0,23.7c3.6,0,7,0.1,10.4,0
		c1.4-0.1,2.9-0.5,4.3-0.9c5.2-1.7,7.9-5.5,8-10.9c0-5.1-2.7-8.7-7.8-10.5C18.7,40.2,13.7,40.5,8.7,40.5z M8.6,33.9
		c3.4-0.4,6.6-0.6,9.7-1.3c3.8-0.9,6.3-3.4,6.8-7.4c0.3-2.3,0.3-4.6-0.1-6.9c-0.4-2.7-2-4.8-4.5-6.1c-3.8-1.8-7.8-1.7-11.9-1.7
		C8.6,18.3,8.6,25.9,8.6,33.9z"/>
	<path class="st0" d="M167.1,3c4,0,7.8-0.1,11.7,0c3.8,0.1,7.5,0.8,11.1,2.1c12.2,4.4,13.2,19.8,7.2,26.8c-1,1.2-2.4,2.2-3.6,3.3
		c0,0,0.1,0.1,0.2,0.1c7.6,1.6,13.3,9.4,13.3,17.6c-0.1,8.8-5.1,15.4-14,17.8c-2.9,0.8-6,1.2-9,1.3c-5.3,0.2-10.7,0.1-16,0.1
		c-0.2,0-0.5,0-0.8-0.1C167.1,49,167.1,26,167.1,3z M175.7,64.5c2.7,0,5.3,0.1,7.9,0c2.8-0.1,5.6-0.5,8.2-1.6
		c4.3-1.8,6.7-5.4,6.7-10.4c0-4.8-2.1-8.3-6.5-10c-2.3-0.9-4.7-1.5-7.1-1.7c-3-0.3-6.1-0.1-9.2-0.1
		C175.7,48.6,175.7,56.4,175.7,64.5z M175.7,33.6c3.5,0.1,6.9,0.1,10.2-1c3.5-1.1,5.6-3.4,6.4-7c0.6-2.6,0.5-5.1-0.1-7.7
		c-0.6-2.1-1.6-3.9-3.5-5.1c-4-2.5-8.4-2.2-12.9-2.2C175.7,18.4,175.7,25.9,175.7,33.6z"/>
	<path class="st0" d="M308.6,2.9c2.8,0,5.6,0,8.5,0c0,9.3,0,18.5,0,27.8c11,0,21.8,0,32.8,0c0-9.3,0-18.5,0-27.8c2.9,0,5.7,0,8.5,0
		c0,23.1,0,46.1,0,69.2c-2.8,0-5.5,0-8.5,0c0-11,0-22,0-33.1c-11,0-21.8,0-32.7,0c0,11,0,22,0,33.1c-2.9,0-5.7,0-8.5,0
		C308.6,49,308.6,26,308.6,2.9z"/>
	<path class="st0" d="M272.3,72.2c-3,0-5.7,0-8.4,0c-0.4,0-1-0.6-1.2-1c-2.3-5-4.6-10.1-6.9-15.2c-0.4-0.8-0.8-1.1-1.7-1.1
		c-9.7,0-19.5,0-29.2,0c-0.9,0-1.4,0.3-1.7,1.1c-2.2,5.1-4.6,10.1-6.8,15.2c-0.3,0.8-0.7,1.1-1.6,1.1c-2.6-0.1-5.2,0-8.1,0
		c11-24.1,21.8-48,32.9-72.3C250.5,24.1,261.3,48,272.3,72.2z M239.5,18.9c-4.2,9.5-8.2,18.7-12.2,27.9c8.2,0,16.3,0,24.4,0
		C247.6,37.5,243.6,28.4,239.5,18.9z"/>
	<path class="st0" d="M81.1,30.1c0,2.7,0,5.3,0,8c-9.2,0-18.3,0-27.5,0c0,8.8,0,17.4,0,26.1c9.4,0,18.8,0,28.2,0c0,2.7,0,5.3,0,7.9
		c-12.3,0-24.5,0-36.8,0C45,49,45,26,45,2.9c12.3,0,24.5,0,36.8,0c0,2.5,0,5.1,0,7.8c-9.4,0-18.8,0-28.2,0c0,6.5,0,12.9,0,19.4
		C62.8,30.1,71.9,30.1,81.1,30.1z"/>
	<path class="st0" d="M279,72.1c0-20.4,0-40.8,0-61.3c-5.5,0-10.8,0-16.3,0c0-2.7,0-5.3,0-7.9c13.7,0,27.3,0,41.1,0
		c0,2.6,0,5.1,0,7.8c-5.4,0-10.7,0-16.2,0c0,20.5,0,40.9,0,61.4C284.6,72.1,281.9,72.1,279,72.1z"/>
	<path class="st0" d="M440.3,94.7c-3.9,0-7-3-7-6.9s3-7,6.9-7c3.8,0,7,3.1,7,6.9C447.2,91.6,444.2,94.7,440.3,94.7z M440.3,93.6
		c3.3,0,5.9-2.7,5.9-6c0-3.2-2.7-5.8-5.9-5.8c-3.2,0-5.9,2.6-5.9,5.8C434.3,90.9,437,93.6,440.3,93.6z"/>
	<path class="st0" d="M441.4,88.1c0.7,1.1,1.4,2.2,2,3.2c-0.1,0.1-0.2,0.2-0.2,0.3c-0.4-0.2-0.9-0.4-1.2-0.7
		c-0.5-0.7-0.9-1.5-1.5-2.1c-0.3-0.4-0.9-0.7-1.4-1c-0.1,0.1-0.2,0.2-0.4,0.3c0,0.9,0,1.9,0,2.8c0,0.2-0.4,0.4-0.6,0.6
		c-0.2-0.2-0.4-0.4-0.4-0.6c0-2.3,0-4.5,0-6.9c1.4,0,2.8-0.1,4.1,0c1,0.1,1.8,0.6,1.9,1.7c0.1,1.2-0.5,1.9-1.6,2.2
		C441.9,87.9,441.7,88,441.4,88.1z M438.8,86.9c1,0,1.8,0.1,2.6,0c0.4-0.1,0.8-0.6,1.2-0.9c-0.4-0.3-0.7-0.8-1.1-0.9
		c-0.9-0.1-1.8,0-2.7,0C438.8,85.6,438.8,86.2,438.8,86.9z"/>
</g>
</svg>
