<?xml version="1.0" encoding="utf-8"?>
<!-- Generator: Adobe Illustrator 21.0.1, SVG Export Plug-In . SVG Version: 6.00 Build 0)  -->
<svg version="1.1" id="Layer_1-belk-square" xmlns="http://www.w3.org/2000/svg" xmlns:xlink="http://www.w3.org/1999/xlink"
	 x="0px" y="0px" viewBox="0 0 847.9 280.8" style="enable-background:new 0 0 847.9 280.8;" xml:space="preserve">
<style type="text/css">
	.st0{fill:#D9D7BF;}
	.st1{fill:#F7F5DC;}
	.st2{fill:#D3D1BC;}
	.st3{fill:#BFBEAA;}
	.st4{fill:#E5E2CC;}
</style>
<path class="st0" d="M488.1,278.4c-7-1.4-13.8-3.5-20.2-6.3c-6.4-2.7-12.5-6.1-18.3-9.9c-5.7-3.9-11-8.3-15.9-13.1
	c-4.9-4.9-9.2-10.2-13.1-15.9c-3.8-5.7-7.2-11.8-9.9-18.3s-4.8-13.2-6.3-20.2c-1.4-7-2.2-14.3-2.2-21.7s0.7-14.7,2.2-21.7
	c1.4-7,3.5-13.8,6.3-20.2c2.7-6.5,6.1-12.6,9.9-18.3c3.9-5.7,8.2-11,13.1-15.9s10.2-9.3,15.9-13.2c5.7-3.8,11.8-7.2,18.2-9.9
	c6.4-2.7,13.2-4.9,20.2-6.3s14.2-2.2,21.6-2.2c7.4,0,14.6,0.8,21.7,2.2c7,1.4,13.8,3.6,20.2,6.3c6.4,2.7,12.5,6.1,18.3,9.9
	c5.7,3.9,11.1,8.3,15.9,13.2c4.9,4.9,9.3,10.2,13.1,15.9l8.5,12.6l-156.8,98.9c1.2,1.4,2.5,2.8,3.8,4.1c3.5,3.5,7.4,6.7,11.6,9.6
	c4.2,2.8,8.6,5.2,13.3,7.2s9.6,3.5,14.7,4.6c5,1,10.3,1.6,15.8,1.6c5.4,0,10.7-0.5,15.8-1.6c5.1-1,10-2.6,14.6-4.5
	c4.7-2,9.1-4.4,13.3-7.2c4.2-2.8,8-6,11.6-9.6c3.5-3.6,6.8-7.4,9.5-11.6c2.8-4.2,5.2-8.6,7.2-13.3l3.5-8.4l27,11.5l-3.5,8.4
	c-2.7,6.4-6.1,12.6-9.9,18.3c-3.9,5.7-8.3,11.1-13.1,15.9c-4.9,4.9-10.2,9.3-15.9,13.1c-5.7,3.8-11.8,7.2-18.2,9.9
	s-13.2,4.8-20.2,6.3c-7,1.4-14.3,2.2-21.7,2.2C502.3,280.6,495.1,279.9,488.1,278.4 M493.9,96.2c-5.1,1-10,2.6-14.7,4.6
	s-9.1,4.4-13.3,7.2c-4.2,2.8-8,6-11.6,9.6c-3.5,3.6-6.8,7.4-9.6,11.6s-5.2,8.6-7.2,13.3c-2,4.7-3.5,9.6-4.6,14.7
	c-1,5.1-1.6,10.4-1.6,15.8s0.5,10.7,1.6,15.8c0.7,3.4,1.6,6.8,2.8,10l128.9-81.4c-3.5-3.5-7.3-6.6-11.4-9.4
	c-4.2-2.8-8.6-5.2-13.2-7.2c-4.7-2-9.6-3.5-14.6-4.6c-5.1-1-10.4-1.6-15.8-1.6C504.3,94.7,499,95.2,493.9,96.2 M180.1,173V0h29.4
	v99.1c19.6-20.8,47.4-33.8,78.2-33.8c59.4,0,107.5,48.2,107.5,107.7s-48.1,107.7-107.6,107.7C228.2,280.6,180.1,232.4,180.1,173
	 M209.5,172.9c0.1,43.3,35,78.3,78.2,78.3c43.2-0.1,78.1-35.1,78.2-78.3c-0.1-43.3-35-78.2-78.2-78.3
	C244.5,94.7,209.6,129.7,209.5,172.9 M783.5,278.5l-91.7-73.2v73.2h-29.4V0h29.4v144.3l91.7-73.2h47.1l-130,103.7l129.9,103.8
	L783.5,278.5L783.5,278.5z M627.9,278.5h-9.1V0h29.4v278.6h-20.3V278.5z"/>
<path class="st1" d="M73.4,194.3c43.9,0,84.7-47.9,84.7-47.9s-34.7-44.6-78.6-44.6S0,147.4,0,147.4s22.9,41.6,71.6,46.7"/>
<path class="st2" d="M12.6,20.3c0-11.2,0.9-18.4,0.9-18.4s73.8-9.1,113.7,30.8c27.4,27.4,31.7,70.9,31.7,95.4
	c0,10.2-0.7,17.1-0.9,18.2c-5.7-6.9-38.7-44.6-78.6-44.6c-13.8,0-26.8,4.5-38.1,10.7C16.6,84.9,12.6,43.8,12.6,20.3"/>
<path class="st3" d="M41.3,112.4c11.3-6.2,24.3-10.7,38.1-10.7c39.9,0,72.9,37.7,78.6,44.6v0.2c0,0-73.8,9.1-113.7-30.8L41.3,112.4"
	/>
<path class="st4" d="M67.5,224.9c0-8.8,0.5-21.6,4.9-33.7c0.8-2.1,4.4,0.2,6.7,0.2c40.7,0,74.3-39.3,78.9-45
	c0.1,0.5,0.6,4.9,0.6,11.4c0,15.3-2.7,42.3-19.7,59.3c-24.8,24.9-70.7,19.2-70.7,19.2S67.5,231.8,67.5,224.9"/>
<path class="st0" d="M71.4,194.1c3-9.8,7.7-19.4,15-27.2c25.1-26.5,71.5-20.5,71.5-20.5c-4.7,6.1-38.6,48-79.8,48
	C75.9,194.4,73.6,194.3,71.4,194.1"/>
<path class="st0" d="M839.6,278.5c-4.6,0-8.2-3.7-8.2-8.2s3.6-8.3,8.3-8.3c4.6,0,8.2,3.7,8.2,8.2
	C847.8,274.8,844.2,278.5,839.6,278.5 M839.6,262.9c-4.2,0-7.4,3.3-7.4,7.4c0,4.1,3.2,7.4,7.3,7.4c4.2,0,7.4-3.3,7.4-7.4
	C847,266.2,843.8,262.9,839.6,262.9 M841.4,271.1l2.3,3.3h-2l-2.1-3h-1.7v3h-1.6v-8.6h3.8c2,0,3.3,1,3.3,2.8
	C843.4,269.9,842.6,270.8,841.4,271.1 M840.1,267.2h-2.2v2.7h2.1c1.1,0,1.7-0.5,1.7-1.4C841.8,267.7,841.1,267.2,840.1,267.2"/>
</svg>
