<?xml version="1.0" encoding="utf-8"?>
<!-- Generator: Adobe Illustrator 21.0.2, SVG Export Plug-In . SVG Version: 6.00 Build 0)  -->
<svg version="1.1" id="Layer_1" xmlns="http://www.w3.org/2000/svg" xmlns:xlink="http://www.w3.org/1999/xlink" x="0px" y="0px"
	 viewBox="0 0 200 200" style="enable-background:new 0 0 200 200;" xml:space="preserve">
<style type="text/css">
	.st0{fill:#FFFFFF;}
</style>
<g>
	<path class="st0" d="M100,199.5c-54.9,0-99.5-44.6-99.5-99.5S45.1,0.5,100,0.5s99.5,44.6,99.5,99.5S154.9,199.5,100,199.5z"/>
	<path d="M100,1c54.6,0,99,44.4,99,99s-44.4,99-99,99S1,154.6,1,100S45.4,1,100,1 M100,0C44.8,0,0,44.8,0,100s44.8,100,100,100
		s100-44.8,100-100S155.2,0,100,0L100,0z"/>
</g>
</svg>
