<?xml version="1.0" encoding="utf-8"?>
<!-- Generator: Adobe Illustrator 21.0.2, SVG Export Plug-In . SVG Version: 6.00 Build 0)  -->
<svg version="1.1" id="Layer_1" xmlns="http://www.w3.org/2000/svg" xmlns:xlink="http://www.w3.org/1999/xlink" x="0px" y="0px"
	 viewBox="0 0 225 224.9" style="enable-background:new 0 0 225 224.9;" xml:space="preserve">
<g transform="translate(0.000000,298.000000) scale(0.100000,-0.100000)">
	<path d="M906,2965.2c-448-89-806-449-891-897c-20-103-20-321,0-424c86-452,446-812,898-898c103-20,321-20,424,0
		c342,65,637,287,795,600c85,168,118,309,118,510s-33,342-118,510c-158,312-454,535-795,600C1238,2985.2,1002,2984.2,906,2965.2z
		 M1348,2907.2c106-23,240-76,334-132c114-67,295-248,362-362c105-176,151-347,151-557s-46-381-151-557c-67-114-248-295-362-362
		c-176-105-347-151-557-151s-381,46-557,151c-114,67-295,248-362,362c-105,176-151,347-151,557c0,286,93,523,283,726
		c172,183,363,288,602,333C1044,2934.2,1242,2930.2,1348,2907.2z"/>
	<path d="M1107,2685.2c-4-4-7-182-7-394c0-332-2-389-15-400c-8-7-15-18-15-24s-81-58-180-116c-128-74-180-109-180-122
		c0-33,35-19,209,81c129,74,177,97,196,93c49-9,87,57,50,88c-13,10-15,71-17,403c-3,344-5,392-18,395
		C1121,2690.2,1111,2689.2,1107,2685.2z"/>
</g>
</svg>
