<?xml version="1.0" encoding="utf-8"?>
<!-- Generator: Adobe Illustrator 21.0.2, SVG Export Plug-In . SVG Version: 6.00 Build 0)  -->
<svg version="1.1" id="Layer_1" xmlns="http://www.w3.org/2000/svg" xmlns:xlink="http://www.w3.org/1999/xlink" x="0px" y="0px"
	 viewBox="0 0 266 298" style="enable-background:new 0 0 266 298;" xml:space="preserve">
<style type="text/css">
	.st0{fill:#B8B58F;}
</style>
<g transform="translate(0.000000,298.000000) scale(0.100000,-0.100000)">
	<path class="st0" d="M1106,2604c-448-89-806-449-891-897c-20-103-20-321,0-424c86-452,446-812,898-898c103-20,321-20,424,0
		c342,65,637,287,795,600c85,168,118,309,118,510s-33,342-118,510c-158,312-454,535-795,600C1438,2624,1202,2623,1106,2604z
		 M1548,2546c106-23,240-76,334-132c114-67,295-248,362-362c105-176,151-347,151-557s-46-381-151-557c-67-114-248-295-362-362
		c-176-105-347-151-557-151s-381,46-557,151c-114,67-295,248-362,362c-105,176-151,347-151,557c0,286,93,523,283,726
		c172,183,363,288,602,333C1244,2573,1442,2569,1548,2546z"/>
	<path class="st0" d="M1287,1532c-10-10-17-23-17-28s-81-56-180-114c-128-74-180-109-180-122c0-11,7-18,19-18c10,0,97,45,192,100
		l174,100l5-397c5-390,5-398,25-398s20,8,23,396c2,337,4,399,17,409c33,28,4,90-42,90C1312,1550,1296,1542,1287,1532z"/>
</g>
</svg>
