<?xml version="1.0" encoding="utf-8"?>
<!-- Generator: Adobe Illustrator 21.0.2, SVG Export Plug-In . SVG Version: 6.00 Build 0)  -->
<svg version="1.1" id="Layer_1" xmlns="http://www.w3.org/2000/svg" xmlns:xlink="http://www.w3.org/1999/xlink" x="0px" y="0px"
	 viewBox="0 0 134.9 134.9" style="enable-background:new 0 0 134.9 134.9;" xml:space="preserve">
<style type="text/css">
	.st0{fill:#B8B58F;}
</style>
<g transform="translate(0.000000,298.000000) scale(0.100000,-0.100000)">
	<path class="st0" d="M572.2,2824c-209.3-41.6-376.6-209.8-416.3-419.1c-9.3-48.1-9.3-150,0-198.1
		c40.2-211.2,208.4-379.4,419.5-419.5c48.1-9.3,150-9.3,198.1,0c159.8,30.4,297.6,134.1,371.4,280.3
		c39.7,78.5,55.1,144.4,55.1,238.3c0,93.9-15.4,159.8-55.1,238.3c-73.8,145.8-212.1,249.9-371.4,280.3
		C727.3,2833.3,617,2832.9,572.2,2824z M778.7,2796.9c49.5-10.7,112.1-35.5,156-61.7c53.3-31.3,137.8-115.9,169.1-169.1
		c49.1-82.2,70.5-162.1,70.5-260.2c0-98.1-21.5-178-70.5-260.2c-31.3-53.3-115.9-137.8-169.1-169.1
		c-82.2-49.1-162.1-70.5-260.2-70.5s-178,21.5-260.2,70.5c-53.3,31.3-137.8,115.9-169.1,169.1c-49.1,82.2-70.5,162.1-70.5,260.2
		c0,133.6,43.4,244.3,132.2,339.2c80.4,85.5,169.6,134.5,281.2,155.6C636.7,2809.5,729.2,2807.6,778.7,2796.9z"/>
	<path class="st0" d="M666.1,2693.2c-1.9-1.9-3.3-85-3.3-184.1c0-155.1-0.9-181.7-7-186.9c-3.7-3.3-7-8.4-7-11.2
		s-37.8-27.1-84.1-54.2c-59.8-34.6-84.1-50.9-84.1-57c0-15.4,16.4-8.9,97.6,37.8c60.3,34.6,82.7,45.3,91.6,43.4
		c22.9-4.2,40.6,26.6,23.4,41.1c-6.1,4.7-7,33.2-7.9,188.3c-1.4,160.7-2.3,183.1-8.4,184.5C672.6,2695.5,668,2695,666.1,2693.2z"/>
</g>
</svg>
