<?xml version="1.0" encoding="utf-8"?>
<!-- Generator: Adobe Illustrator 21.0.2, SVG Export Plug-In . SVG Version: 6.00 Build 0)  -->
<svg version="1.1" id="Layer_1" xmlns="http://www.w3.org/2000/svg" xmlns:xlink="http://www.w3.org/1999/xlink" x="0px" y="0px"
	 viewBox="0 0 134.9 134.9" style="enable-background:new 0 0 134.9 134.9;" xml:space="preserve">
<style type="text/css">
	.st0{fill:none;}
	.st1{fill:#B8B58F;}
	.st2{enable-background:new    ;}
</style>
<g>
	<path class="st0" d="M4.7,65.9c-1.4,0-2.1,1.8-1,2.5C5,69.2,6.9,68,6.2,66.8C5.8,66.3,5.2,65.9,4.7,65.9z"/>
	<path class="st0" d="M15.5,54.9c-0.3-2.5-0.4-2.4-3.7,1.9c-2.5,3.4-3.1,4.9-2.4,6c1.4,2.2,4.5,2.7,3.7,0.7c-0.4-1.1-0.1-1.6,1-1.6
		c2.1,0,3.2,2.8,1.8,4.2c-0.8,0.8-0.8,1.5-0.1,2.5c1.5,1.7,0.4,4.3-1.7,4.3c-1.1,0-1.4-0.5-1-1.6c0.8-2-2.3-1.5-3.7,0.7
		c-0.7,1.2-0.1,2.7,2.7,6.3l3.6,4.8V80c0-1.7,0.7-5.1,1.6-7.7c1.4-4.3,1.4-5.2,0-9.8C16.5,59.7,15.6,56.3,15.5,54.9z"/>
	<path class="st0" d="M55.7,33.4c-12.2,4-18.2,5.4-24.3,5.6c-5,0.2-6.1,0.6-8.2,3.1c-4.9,5.8-4.5,12.6,1.3,20.3l3.8,5l-3.8,5
		c-5.8,7.6-6.2,14.5-1.3,20.4c2.1,2.4,3.2,2.8,8.2,3c6.4,0.2,9.5,0.9,23.1,5.2c6.1,1.9,9.7,2.8,13.4,2.7V31.1
		C64.2,30.9,60.9,31.7,55.7,33.4z"/>
	<path class="st1" d="M32.1,27.7c1.4,0.6,3.2,2.2,4.1,3.6c1.4,2.1,2,2.3,4.4,1.5c1.5-0.5,4.5-2.8,6.6-4.9c2.3-2.3,4.8-4,6-3.9
		c1.7,0.1,1.8,0.2,0.2,0.6c-1,0.3-1.6,1-1.4,1.6c0.5,1.5,2,1.8,3.7,0.7c2.1-1.3-0.1-4.6-2.9-4.3c-1.9,0.3-2,0-1.1-1.7
		c2.9-5.4,12-5.3,12,0.2c0,1.4-0.5,1.7-2.4,1.2c-2.9-0.7-4.4,1.2-2.4,3.2c2.1,2.1,6.6,0.2,7.4-3.1c0.5-1.9,0.1-3.2-1.7-5.1
		c-3-3.2-7.8-3.2-11.7,0.1c-1.7,1.4-4.2,4.6-5.7,7c-3,5.2-3.8,5.7-2.2,1.6c0.8-2.3,0.8-3.3-0.2-4.5c-1.9-2.3-3.1-1-3.2,3.7
		c-0.2,3-0.3,3.4-0.6,1.4c-0.6-3.9-3.3-3.5-3.3,0.4v3.2l-2.1-2.7c-1.1-1.4-2.9-2.6-4-2.6C28.9,24.9,29.2,26.4,32.1,27.7z"/>
	<path class="st1" d="M54.5,101c-13.6-4.3-16.7-5-23.1-5.2c-5-0.2-6.1-0.6-8.2-3c-4.9-5.9-4.5-12.8,1.3-20.4l3.8-5l-3.8-5
		c-5.8-7.7-6.2-14.5-1.3-20.3c2.1-2.5,3.2-2.9,8.2-3.1c6.1-0.2,12.1-1.6,24.3-5.6c5.2-1.7,8.5-2.5,12.2-2.3v-3.7
		c-3.6-0.1-7-0.1-8.7,0.1c-1.6,0.3-4.5,1.2-6.2,2c-10.7,4.9-25.1,8.9-22.5,6.3c1.4-1.5,1.6-4.9,0.2-4.9c-0.5,0-1,0.9-1,2
		c0,1.4-0.7,2-2.1,2c-1.5,0-2-0.5-1.7-2.3c0.2-1.6,1.1-2.3,3.2-2.5c1.6-0.2,3.3,0.1,3.9,0.7s1.6,1.1,2.2,1.1c0.5-0.1-0.1-1-1.4-2
		c-1.3-1.1-3.3-2-4.5-2c-4.6,0.1-7.3,4.9-4.4,7.8c0.9,0.9,0.9,1.2,0,1.2c-0.6,0-2.7,2.1-4.7,4.6c-2,2.8-3.5,4-3.5,3
		c0-0.9,0.5-1.6,1-1.6c1.3,0,1.3-4.7-0.1-5.5C17,37,16.3,37.6,16,38.7c-0.4,1.8-0.8,1.9-2.9,1c-1.3-0.6-2.7-0.8-3.2-0.3
		c-0.4,0.4-0.1,1,0.6,1.2c0.6,0.3,1.2,1.3,1.2,2.4c0,1,0.4,1.9,1,1.9c0.5,0,1.2,1.1,1.6,2.5c0.6,2.6-0.9,5.5-2.9,5.5
		c-0.7,0-0.7-0.4,0.1-1.2c1.8-1.8,1.5-2.8-0.8-2.8c-2.4,0-2.8,3.5-0.5,4.8c1.4,0.7,1.3,1.1-0.5,3.2c-2.4,2.8-3.5,6.4-2.4,8.2
		c0.6,1,0.4,1-0.9,0c-1.4-1.2-2-1.1-4,0.5L0,67.4l2.4,1.9c2,1.5,2.7,1.6,4,0.4c1.4-1,1.5-1,0.9,0c-1.1,1.8,0,5.4,2.4,8.2
		c1.8,2.1,1.9,2.5,0.5,3.2c-2.3,1.3-1.9,4.8,0.5,4.8c2.3,0,2.6-1,0.8-2.8c-0.8-0.8-0.8-1.2-0.1-1.2c2,0,3.5,2.9,2.9,5.5
		c-0.4,1.4-1.1,2.5-1.6,2.5c-0.6,0-1,0.9-1,1.9c0,1.1-0.6,2.1-1.2,2.4c-0.7,0.2-1,0.8-0.6,1.2c0.5,0.5,1.9,0.3,3.2-0.3
		c2.1-0.9,2.5-0.8,2.9,1c0.3,1.1,1,1.7,1.6,1.3c1.4-0.8,1.4-5.5,0.1-5.5c-0.5,0-1-0.7-1-1.6c0-1,1.5,0.2,3.5,3
		c2,2.5,4.1,4.6,4.7,4.6c0.9,0,0.9,0.3,0,1.2c-2.9,2.9-0.2,7.7,4.4,7.8c1.2,0,3.2-0.9,4.5-2c1.3-1,1.9-1.9,1.4-2
		c-0.6,0-1.6,0.5-2.2,1.1c-0.6,0.6-2.3,0.9-3.9,0.7c-2.1-0.2-3-0.9-3.2-2.6c-0.3-1.7,0.2-2.2,1.7-2.2c1.4,0,2.1,0.6,2.1,2
		c0,1.1,0.5,2,1,2c1.4,0,1.2-3.4-0.2-4.9c-1.1-1-0.5-1.1,2.7-0.6c4.6,0.9,19.3,6.2,21.4,7.9c0.9,0.7,7.2,1.1,13.3,1v-3.7
		C64.2,103.8,60.6,102.9,54.5,101z M3.7,68.4c-1.1-0.7-0.4-2.5,1-2.5c0.5,0,1.1,0.4,1.5,0.9C6.9,68,5,69.2,3.7,68.4z M17.3,72.3
		c-0.9,2.6-1.6,6-1.6,7.7v3.1l-3.6-4.8c-2.8-3.6-3.4-5.1-2.7-6.3c1.4-2.2,4.5-2.7,3.7-0.7c-0.4,1.1-0.1,1.6,1,1.6
		c2.1,0,3.2-2.6,1.7-4.3c-0.7-1-0.7-1.7,0.1-2.5c1.4-1.4,0.3-4.2-1.8-4.2c-1.1,0-1.4,0.5-1,1.6c0.8,2-2.3,1.5-3.7-0.7
		c-0.7-1.1-0.1-2.6,2.4-6c3.3-4.3,3.4-4.4,3.7-1.9c0.1,1.4,1,4.8,1.8,7.6C18.7,67.1,18.7,68,17.3,72.3z"/>
	<path class="st1" d="M58.9,109.3c-2,2-0.5,3.9,2.4,3.2c1.9-0.5,2.4-0.2,2.4,1.2c0,5.5-9.1,5.6-12,0.2c-0.9-1.7-0.8-2,1.1-1.7
		c2.8,0.3,5-3,2.9-4.3c-1.7-1.1-3.2-0.8-3.7,0.7c-0.2,0.6,0.4,1.3,1.4,1.6c1.6,0.4,1.5,0.5-0.2,0.6c-1.2,0.1-3.7-1.6-6-3.9
		c-2.1-2.1-5.1-4.4-6.6-4.9c-2.4-0.8-3-0.6-4.4,1.5c-0.9,1.4-2.7,3-4.1,3.6c-2.9,1.3-3.2,2.8-0.5,2.8c1.1,0,2.9-1.2,4-2.6l2.1-2.7
		v3.2c0,3.9,2.7,4.3,3.3,0.3c0.3-1.9,0.4-1.5,0.6,1.5c0.1,4.7,1.3,6,3.2,3.7c1-1.2,1-2.2,0.2-4.5c-1.6-4.1-0.8-3.6,2.2,1.6
		c5.5,9.2,12.7,12.2,17.4,7.1c1.8-1.9,2.2-3.2,1.7-5.1C65.5,109.1,61,107.2,58.9,109.3z"/>
	<path class="st0" d="M130.2,65.9c1.4,0,2.1,1.8,1,2.5c-1.3,0.8-3.2-0.4-2.5-1.6C129.1,66.3,129.7,65.9,130.2,65.9z"/>
	<path class="st0" d="M119.4,54.9c0.3-2.5,0.4-2.4,3.7,1.9c2.5,3.4,3.1,4.9,2.4,6c-1.4,2.2-4.5,2.7-3.7,0.7c0.4-1.1,0.1-1.6-1-1.6
		c-2.1,0-3.2,2.8-1.8,4.2c0.8,0.8,0.8,1.5,0.1,2.5c-1.5,1.7-0.4,4.3,1.7,4.3c1.1,0,1.4-0.5,1-1.6c-0.8-2,2.3-1.5,3.7,0.7
		c0.7,1.2,0.1,2.7-2.7,6.3l-3.6,4.8V80c0-1.7-0.7-5.1-1.6-7.7c-1.4-4.3-1.4-5.2,0-9.8C118.4,59.7,119.3,56.3,119.4,54.9z"/>
	<path class="st0" d="M79.2,33.4c12.2,4,18.2,5.4,24.3,5.6c5,0.2,6.1,0.6,8.2,3.1c4.9,5.8,4.5,12.6-1.3,20.3l-3.8,5l3.8,5
		c5.8,7.6,6.2,14.5,1.3,20.4c-2.1,2.4-3.2,2.8-8.2,3C97.1,96,94,96.7,80.4,101c-6.1,1.9-9.7,2.8-13.4,2.7V31.1
		C70.7,30.9,74,31.7,79.2,33.4z"/>
	<path class="st1" d="M102.8,27.7c-1.4,0.6-3.2,2.2-4.1,3.6c-1.4,2.1-2,2.3-4.4,1.5c-1.5-0.5-4.5-2.8-6.6-4.9c-2.3-2.3-4.8-4-6-3.9
		c-1.7,0.1-1.8,0.2-0.2,0.6c1,0.3,1.6,1,1.4,1.6c-0.5,1.5-2,1.8-3.7,0.7c-2.1-1.3,0.1-4.6,2.9-4.3c1.9,0.3,2,0,1.1-1.7
		c-2.9-5.4-12-5.3-12,0.2c0,1.4,0.5,1.7,2.4,1.2c2.9-0.7,4.4,1.2,2.4,3.2c-2.1,2.1-6.6,0.2-7.4-3.1c-0.5-1.9-0.1-3.2,1.7-5.1
		c3-3.2,7.8-3.2,11.7,0.1c1.7,1.4,4.2,4.6,5.7,7c3,5.2,3.8,5.7,2.2,1.6c-0.8-2.3-0.8-3.3,0.2-4.5c1.9-2.3,3.1-1,3.2,3.7
		c0.2,3,0.3,3.4,0.6,1.4c0.6-3.9,3.3-3.5,3.3,0.4v3.2l2.1-2.7c1.1-1.4,2.9-2.6,4-2.6C106,24.9,105.7,26.4,102.8,27.7z"/>
	<path class="st1" d="M67,103.7v3.7c6.1,0,12.4-0.3,13.3-1c2.1-1.7,16.8-7,21.4-7.9c3.2-0.5,3.8-0.4,2.7,0.6
		c-1.4,1.5-1.6,4.9-0.2,4.9c0.5,0,1-0.9,1-2c0-1.4,0.7-2,2.1-2c1.5,0,2,0.5,1.7,2.2c-0.2,1.7-1.1,2.4-3.2,2.6
		c-1.6,0.2-3.3-0.1-3.9-0.7s-1.6-1.1-2.2-1.1c-0.5,0.1,0.1,1,1.4,2c1.3,1.1,3.3,2,4.5,2c4.6-0.1,7.3-4.9,4.4-7.8
		c-0.9-0.9-0.9-1.2,0-1.2c0.6,0,2.7-2.1,4.7-4.6c2-2.8,3.5-4,3.5-3c0,0.9-0.5,1.6-1,1.6c-1.3,0-1.3,4.7,0.1,5.5
		c0.6,0.4,1.3-0.2,1.6-1.3c0.4-1.8,0.8-1.9,2.9-1c1.3,0.6,2.7,0.8,3.2,0.3c0.4-0.4,0.1-1-0.6-1.2c-0.6-0.3-1.2-1.3-1.2-2.4
		c0-1-0.4-1.9-1-1.9c-0.5,0-1.2-1.1-1.6-2.5c-0.6-2.6,0.9-5.5,2.9-5.5c0.7,0,0.7,0.4-0.1,1.2c-1.8,1.8-1.5,2.8,0.8,2.8
		c2.4,0,2.8-3.5,0.5-4.8c-1.4-0.7-1.3-1.1,0.5-3.2c2.4-2.8,3.5-6.4,2.4-8.2c-0.6-1-0.5-1,0.9,0c1.3,1.2,2,1.1,4-0.4l2.4-1.9
		l-2.4-1.8c-2-1.6-2.6-1.7-4-0.5c-1.3,1-1.5,1-0.9,0c1.1-1.8,0-5.4-2.4-8.2c-1.8-2.1-1.9-2.5-0.5-3.2c2.3-1.3,1.9-4.8-0.5-4.8
		c-2.3,0-2.6,1-0.8,2.8c0.8,0.8,0.8,1.2,0.1,1.2c-2,0-3.5-2.9-2.9-5.5c0.4-1.4,1.1-2.5,1.6-2.5c0.6,0,1-0.9,1-1.9
		c0-1.1,0.6-2.1,1.2-2.4c0.7-0.2,1-0.8,0.6-1.2c-0.5-0.5-1.9-0.3-3.2,0.3c-2.1,0.9-2.5,0.8-2.9-1c-0.3-1.1-1-1.7-1.6-1.3
		c-1.4,0.8-1.4,5.5-0.1,5.5c0.5,0,1,0.7,1,1.6c0,1-1.5-0.2-3.5-3c-2-2.5-4.1-4.6-4.7-4.6c-0.9,0-0.9-0.3,0-1.2
		c2.9-2.9,0.2-7.7-4.4-7.8c-1.2,0-3.2,0.9-4.5,2c-1.3,1-1.9,1.9-1.4,2c0.6,0,1.6-0.5,2.2-1.1s2.3-0.9,3.9-0.7c2.1,0.2,3,0.9,3.2,2.5
		c0.3,1.8-0.2,2.3-1.7,2.3c-1.4,0-2.1-0.6-2.1-2c0-1.1-0.5-2-1-2c-1.4,0-1.2,3.4,0.2,4.9c2.6,2.6-11.8-1.4-22.5-6.3
		c-1.7-0.8-4.6-1.7-6.2-2c-1.7-0.2-5.1-0.2-8.7-0.1v3.7c3.7-0.2,7,0.6,12.2,2.3c12.2,4,18.2,5.4,24.3,5.6c5,0.2,6.1,0.6,8.2,3.1
		c4.9,5.8,4.5,12.6-1.3,20.3l-3.8,5l3.8,5c5.8,7.6,6.2,14.5,1.3,20.4c-2.1,2.4-3.2,2.8-8.2,3c-6.4,0.2-9.5,0.9-23.1,5.2
		C74.3,102.9,70.7,103.8,67,103.7z M128.7,66.8c0.4-0.5,1-0.9,1.5-0.9c1.4,0,2.1,1.8,1,2.5C129.9,69.2,128,68,128.7,66.8z
		 M117.6,62.5c0.8-2.8,1.7-6.2,1.8-7.6c0.3-2.5,0.4-2.4,3.7,1.9c2.5,3.4,3.1,4.9,2.4,6c-1.4,2.2-4.5,2.7-3.7,0.7
		c0.4-1.1,0.1-1.6-1-1.6c-2.1,0-3.2,2.8-1.8,4.2c0.8,0.8,0.8,1.5,0.1,2.5c-1.5,1.7-0.4,4.3,1.7,4.3c1.1,0,1.4-0.5,1-1.6
		c-0.8-2,2.3-1.5,3.7,0.7c0.7,1.2,0.1,2.7-2.7,6.3l-3.6,4.8V80c0-1.7-0.7-5.1-1.6-7.7C116.2,68,116.2,67.1,117.6,62.5z"/>
	<path class="st1" d="M76,109.3c2,2,0.5,3.9-2.4,3.2c-1.9-0.5-2.4-0.2-2.4,1.2c0,5.5,9.1,5.6,12,0.2c0.9-1.7,0.8-2-1.1-1.7
		c-2.8,0.3-5-3-2.9-4.3c1.7-1.1,3.2-0.8,3.7,0.7c0.2,0.6-0.4,1.3-1.4,1.6c-1.6,0.4-1.5,0.5,0.2,0.6c1.2,0.1,3.7-1.6,6-3.9
		c2.1-2.1,5.1-4.4,6.6-4.9c2.4-0.8,3-0.6,4.4,1.5c0.9,1.4,2.7,3,4.1,3.6c2.9,1.3,3.2,2.8,0.5,2.8c-1.1,0-2.9-1.2-4-2.6l-2.1-2.7v3.2
		c0,3.9-2.7,4.3-3.3,0.3c-0.3-1.9-0.4-1.5-0.6,1.5c-0.1,4.7-1.3,6-3.2,3.7c-1-1.2-1-2.2-0.2-4.5c1.6-4.1,0.8-3.6-2.2,1.6
		c-5.5,9.2-12.7,12.2-17.4,7.1c-1.8-1.9-2.2-3.2-1.7-5.1C69.4,109.1,73.9,107.2,76,109.3z"/>
	<rect x="22.9" y="51.8" class="st0" width="88.5" height="48.2"/>
	<g class="st2">
		<path class="st1" d="M30.9,54.9c0.6-0.8,1.4-1.5,2.6-2S36,52,37.7,52c1.5,0,3,0.3,4.4,0.9s2.1,1.5,2.1,2.7c0,0.5-0.3,0.8-0.8,1.1
			s-1.1,0.4-1.6,0.4c-0.2,0-0.3-0.1-0.3-0.4c0-0.1,0-0.3,0.1-0.6s0.1-0.6,0.1-0.8c0-1.6-1.4-2.4-4.3-2.4c-1.2,0-2.3,0.3-3.4,0.8
			c-1.1,0.5-1.6,1.3-1.6,2.1c0,1.1,1,2.2,3,3.2c2,1.1,4.1,2.1,6.1,3.1s3.9,2.4,5.4,4s2.3,3.7,2.3,6.2c0,2.6-0.6,4.8-1.7,6.5
			c-1.2,1.7-2.7,3-4.6,3.8C41,83.6,38.8,84,36.5,84c-3.1,0-5.8-0.7-8.1-2.2S25,78.1,25,75.1c0-1.1,0.4-2.2,1.1-3.3s1.8-2,3.1-2.7
			s2.9-1.1,4.7-1.1c1.2,0,2.4,0.2,3.5,0.6s2.1,1,2.8,1.8c0.7,0.8,1.1,1.8,1.1,2.9c0,1.5-0.5,2.6-1.6,3.4c-1.1,0.7-2.3,1.1-3.7,1.1
			c-1.1,0-2.1-0.3-3.1-0.8c-0.9-0.5-1.4-1.2-1.4-1.8c0-0.8,0.2-1.3,0.6-1.6c0.4-0.3,0.9-0.6,1.6-0.7c0.4,2,1.1,3,2.2,3
			c0.9,0,1.6-0.3,2.1-0.9c0.5-0.6,0.8-1.2,0.8-1.8c0-1.2-0.6-2.1-1.7-2.8s-2.4-1-3.8-1c-1.2,0-2.3,0.3-3.3,0.8
			c-1.1,0.5-1.9,1.3-2.6,2.2s-1,2-1,3.2c0,1.6,0.5,2.9,1.6,4.1c1.1,1.1,2.4,1.9,4,2.5c1.6,0.5,3.2,0.8,4.8,0.8
			c1.7,0,3.3-0.4,4.9-1.2c1.5-0.8,2.8-1.9,3.7-3.2s1.4-2.9,1.4-4.5c0-2.1-0.7-3.8-2.2-5.2c-1.5-1.4-3.6-2.8-6.5-4.3
			c-2.8-1.5-4.9-2.7-6.2-3.6c-1.3-1-1.9-2.2-1.9-3.7C30,56.4,30.3,55.7,30.9,54.9z"/>
		<path class="st1" d="M80.2,52.8c-0.2,0.2-0.4,0.6-0.7,0.9c-0.3,0.4-0.5,0.6-0.6,0.8c-0.1,0.2-0.2,0.4-0.2,0.6v25.9
			c0,0.1,0.2,0.4,0.5,0.7c0.3,0.4,0.7,1,1.3,1.9h-6.2c0.2-0.4,0.3-0.7,0.5-0.9c0.1-0.2,0.3-0.4,0.5-0.6c0.2-0.2,0.3-0.4,0.4-0.6
			c0.1-0.2,0.1-0.5,0.1-0.8V62.2c-0.4,0-1.1,0.2-2.4,0.5c-1.2,0.3-2.2,0.5-2.8,0.5c-2,0-3.4-0.1-4.2-0.3s-1.7-0.5-2.6-0.9
			s-1.8-0.7-2.7-0.8c0,0.3,0,1.8,0,4.5c0,2.5,0,5.3,0,8.4c0,3.1,0,5.5-0.1,7c0.2,0.3,0.4,0.7,0.8,1.3c0.4,0.6,0.7,1,0.9,1.4
			c-0.5,0.2-2.1,0.3-5,0.3h-1.2v-0.6c0.3-0.2,0.5-0.5,0.8-0.7s0.5-0.5,0.8-0.7V71.7c0-6.8,0-10.3-0.1-10.3c-1.5,0-2.6,0.3-3.3,0.8
			s-1.1,1.2-1.1,2c0,0.5,0.1,0.8,0.2,1.1s0.4,0.4,0.6,0.5s0.5,0.2,0.9,0.4c-0.3,0.6-0.6,1-0.8,1.2s-0.6,0.3-1.3,0.3
			c-0.6,0-1.1-0.3-1.6-1S51,65.4,51,64.6c0.3-1.3,0.7-2.3,1.3-3c0.6-0.7,1.3-1.2,2.1-1.5c0.8-0.3,2-0.6,3.4-0.8
			c0-1.6-0.1-2.8-0.3-3.6S56.9,54,56.3,53h5.9c-0.8,1.2-1.2,2.6-1.2,4c0,0.2,0,0.6,0,1.2s0,1,0,1.3c0.8,0.2,1.8,0.5,3.1,0.9
			c1.3,0.4,2.3,0.7,3.1,0.9s1.7,0.3,2.6,0.3c1.2,0,2.3-0.1,3.4-0.4c1-0.3,1.7-0.6,2.2-1.1c0-0.3,0-0.7,0-1.2c0-0.5,0-1,0-1.4
			c0-1,0-1.7-0.1-2.1c0-0.4-0.2-0.7-0.3-1s-0.5-0.9-1.1-1.7H80.2z"/>
		<path class="st1" d="M104.6,50.6c0.4-0.2,0.6-0.3,0.8-0.3c0.4,0,0.9,0.3,1.5,0.9c0.6,0.6,0.9,1.1,0.9,1.4c0,2-1.5,3-4.5,3
			c-0.5,0-1.1-0.1-1.7-0.2c-0.6-0.1-1.3-0.3-2.1-0.5c-0.9-0.2-1.6-0.4-2.2-0.6c-0.6-0.1-1.2-0.2-1.8-0.2c-1.8,0-3.5,0.5-5.1,1.6
			c-1.6,1.1-2.8,2.5-3.7,4.4c-0.9,1.9-1.4,4-1.4,6.4c0,2.8,0.7,5.4,2,7.9s3.1,4.4,5.3,5.8c2.2,1.4,4.5,2.2,7,2.2
			c1.3,0,2.6-0.3,3.7-0.8c-0.8-1.8-1.2-3.7-1.2-5.9v-8.3c-0.9-0.2-1.5-0.3-1.8-0.3c-0.1,0-0.2,0.1-0.4,0.2c-0.1,0.1-0.4,0.2-0.8,0.2
			c-0.5,0-1-0.1-1.3-0.2c-0.4-0.1-0.8-0.3-1.2-0.6c-0.4-0.2-0.8-0.4-1.1-0.5c-0.3-0.1-0.7-0.2-1.1-0.2c-1,0-1.5,0.4-1.5,1.2
			c0,0.6,0.4,1,1.1,1c0.2,0,0.4,0,0.6,0c0.2,0,0.4,0,0.4,0v1.5h-2.4c-0.4-0.4-0.7-0.7-0.7-0.9c-0.1-0.2-0.1-0.6-0.1-1.2
			c0-1,0.4-1.8,1.2-2.5c0.8-0.7,1.7-1,2.7-1c0.6,0,1.3,0.2,2.3,0.5s1.7,0.6,2.3,0.7s1.4,0.2,2.5,0.2c0.4,0,1-0.1,1.8-0.2
			c0.8-0.1,1.4-0.2,2-0.2c0,0-0.1,0.3-0.4,0.6c-0.2,0.4-0.4,0.8-0.6,1.1c-0.1,0.3-0.2,0.7-0.2,0.9v5.9c0,1.5,0.1,2.9,0.4,4
			s0.6,2.5,1.1,3.9c-1.4,0.8-2.5,1.3-3.4,1.6c-0.9,0.3-1.7,0.5-2.5,0.6c-0.8,0.1-1.9,0.1-3.2,0.1c-2.2,0-4.3-0.4-6.3-1.2
			c-1.9-0.8-3.6-2-5-3.4c-1.4-1.5-2.5-3.2-3.2-5.1c-0.8-1.9-1.2-4-1.2-6.2c0-2.3,0.6-4.7,1.8-7c1.2-2.4,2.9-4.3,5-5.8
			c2.1-1.5,4.4-2.2,6.8-2.2c1.2,0.2,2.4,0.5,3.5,0.7c1.2,0.2,2.4,0.5,3.5,0.7c0.5,0,0.9-0.1,1.4-0.3c0.5-0.2,0.7-0.5,0.7-0.9
			c0-0.3-0.1-0.6-0.4-0.9c-0.3-0.3-0.5-0.7-0.7-1.2C103.9,50.9,104.2,50.7,104.6,50.6z"/>
	</g>
	<rect x="39.7" y="88.7" class="st0" width="54.8" height="16"/>
	<g class="st2">
		<path class="st1" d="M46.2,91.4c0.2-0.5,0.4-1,0.8-1.4c0.3-0.4,0.7-0.7,1.2-0.9s1-0.3,1.5-0.3c0.5,0,0.9,0.1,1.3,0.3
			s0.6,0.5,0.6,0.9c0,0.3-0.1,0.4-0.2,0.5s-0.3,0.1-0.5,0.1h-0.4c0,0,0.1-0.1,0.1-0.2s0.1-0.2,0.1-0.2c0,0,0-0.1,0-0.2
			c0-0.1-0.1-0.3-0.2-0.4c-0.1-0.1-0.3-0.2-0.5-0.2s-0.4-0.1-0.6-0.1c-0.5,0-0.9,0.1-1.3,0.3s-0.7,0.5-0.9,0.9s-0.4,0.8-0.5,1.3
			c0,0.2,0,0.3,0,0.5c0,0.2,0,0.4,0,0.5s0,0.3,0,0.4c0.2-0.1,0.4-0.3,0.7-0.5s0.5-0.4,0.7-0.5s0.5-0.2,0.9-0.4s0.9-0.2,1.5-0.3
			c0.2,0,0.4,0,0.8-0.1s0.7-0.1,1-0.3c0.3-0.2,0.5-0.4,0.5-0.6c0-0.1,0-0.2-0.1-0.2s-0.1-0.1-0.2-0.1c-0.1,0-0.1-0.1-0.1-0.1
			c0-0.1,0-0.2,0.1-0.2c0.1-0.1,0.2-0.1,0.3-0.1c0.2,0,0.3,0.1,0.3,0.2s0.1,0.3,0.1,0.4c0,0.6-0.3,1-0.8,1.3s-1.3,0.5-2.4,0.8
			s-1.8,0.4-2.3,0.6C47.2,93.2,47,93.5,47,94c0,0.3,0.2,0.7,0.5,1.1s0.7,0.8,1.1,1c0.5,0.3,0.9,0.4,1.3,0.4c0.1,0,0.1,0,0.3,0
			c0.4-0.1,0.7-0.1,0.9-0.2s0.4-0.1,0.5-0.3s0.3-0.3,0.4-0.5s0.1-0.4,0.2-0.7c0.2,0.1,0.3,0.2,0.3,0.3s0.1,0.2,0.1,0.4
			c0,0.2-0.1,0.5-0.4,0.7c-0.2,0.3-0.6,0.5-1,0.6s-0.8,0.3-1.3,0.3c-0.6,0-1.1-0.1-1.6-0.3c-0.5-0.2-0.9-0.5-1.2-0.9
			s-0.6-0.8-0.8-1.3s-0.3-1-0.3-1.6C46,92.4,46,91.9,46.2,91.4z"/>
		<path class="st1" d="M54.1,92c0.2-0.2,0.5-0.4,0.8-0.5s0.7-0.2,1-0.2c1,0,1.5,0.3,1.5,0.9c0,0.1,0,0.2-0.1,0.3s-0.2,0.2-0.4,0.3
			c-0.2,0.1-0.3,0.1-0.5,0.1c-0.3,0-0.5-0.1-0.6-0.2c-0.1-0.1-0.2-0.3-0.2-0.4c0-0.1,0-0.2,0-0.2c0,0,0.1-0.1,0.3-0.2
			c0.1,0.2,0.2,0.3,0.3,0.3s0.1,0.1,0.2,0.1c0.1,0,0.1,0,0.2-0.1s0.1-0.2,0.1-0.3c0-0.1-0.1-0.2-0.3-0.3c-0.2-0.1-0.4-0.1-0.6-0.1
			c-0.3,0-0.7,0.1-1.1,0.3s-0.5,0.4-0.5,0.7c0,0.3,0.1,0.5,0.4,0.6s0.7,0.2,1.4,0.3s1.2,0.3,1.5,0.5c0.3,0.2,0.5,0.6,0.5,1.1
			c0,0.3-0.1,0.7-0.4,1s-0.6,0.6-1,0.8s-0.9,0.3-1.5,0.3c-0.6,0-1-0.1-1.3-0.4c-0.3-0.3-0.4-0.6-0.4-1c0-0.2,0.1-0.4,0.2-0.6
			c0.1-0.2,0.3-0.3,0.5-0.4s0.4-0.1,0.6-0.1c0.3,0,0.6,0.1,0.8,0.2c0.2,0.1,0.3,0.3,0.3,0.5c0,0.2,0,0.3-0.1,0.4s-0.2,0.2-0.3,0.3
			h-0.6c0-0.1,0.1-0.1,0.1-0.3s0.1-0.2,0.1-0.2c0-0.1-0.1-0.2-0.2-0.3s-0.3-0.1-0.5-0.1c-0.2,0-0.4,0.1-0.6,0.2s-0.3,0.3-0.3,0.6
			c0,0.2,0.1,0.4,0.4,0.6s0.6,0.2,1,0.2c0.3,0,0.6,0,1-0.1c0.4-0.1,0.7-0.3,0.9-0.5c0.3-0.2,0.4-0.5,0.4-0.8c0-0.4-0.1-0.6-0.4-0.7
			c-0.3-0.1-0.8-0.3-1.4-0.4c-0.6-0.1-1.1-0.3-1.4-0.4s-0.5-0.5-0.5-0.9C53.8,92.4,53.9,92.2,54.1,92z"/>
		<path class="st1" d="M60.1,89.8c0,0.1,0,0.2,0,0.3s0,0.2,0,0.3c0,0,0,0.1,0,0.1s0,0.1,0,0.1c0,0.1,0,0.3,0,0.4s0,0.2,0,0.2
			c0,0.1,0,0.2,0.1,0.2s0.3,0,0.6,0v0.3h-0.6v3.9c0,0.3,0.2,0.6,0.5,0.8c-0.1,0.1-0.2,0.2-0.3,0.3s-0.2,0.2-0.3,0.2
			c-0.1,0-0.2-0.1-0.3-0.2s-0.2-0.4-0.3-0.7c-0.1-0.3-0.1-0.7-0.1-1.1v-3.2c-0.2-0.1-0.4-0.2-0.4-0.2c0,0,0,0-0.1,0
			c0,0-0.1,0-0.1,0.1s-0.1,0.1-0.1,0.1v-0.4c0.3,0,0.5,0,0.6-0.1s0.1-0.2,0.1-0.4c0-0.1,0-0.1,0-0.2c0-0.1-0.1-0.1-0.1-0.2
			S59,90.6,59,90.5c0.1-0.1,0.2-0.2,0.3-0.3s0.3-0.3,0.4-0.4c0.1-0.1,0.2-0.2,0.3-0.3C60.1,89.5,60.1,89.7,60.1,89.8z"/>
		<path class="st1" d="M61.5,95.8c0.1-0.1,0.3-0.2,0.5-0.2c0.3,0,0.5,0.1,0.6,0.2s0.2,0.3,0.2,0.5c0,0.2-0.1,0.4-0.2,0.5
			c-0.2,0.2-0.3,0.2-0.5,0.2s-0.4-0.1-0.5-0.2c-0.2-0.2-0.2-0.3-0.2-0.5C61.3,96.1,61.4,95.9,61.5,95.8z"/>
		<path class="st1" d="M66.9,90.5c0.2-0.3,0.4-0.5,0.8-0.7c0.3-0.2,0.7-0.3,1.2-0.3c0.4,0,0.8,0.1,1.1,0.3c0.3,0.2,0.6,0.4,0.7,0.7
			s0.2,0.7,0.2,1c0,0.5-0.1,1-0.4,1.4s-0.8,0.9-1.4,1.4c-0.6,0.5-1.1,0.9-1.3,1.1s-0.3,0.4-0.4,0.7c0.1,0,0.4-0.1,0.9-0.1
			s1.4-0.1,2.7-0.2c-0.1,0.5-0.3,0.9-0.4,1.1c0,0-0.1,0-0.3-0.1s-0.4-0.1-0.6-0.1s-0.6-0.1-1-0.1c-0.4,0-0.6,0-0.8,0
			c-0.2,0-0.4,0.1-0.7,0.1C66.9,97,66.7,97,66.5,97c0.2-0.6,0.4-1,0.7-1.4c0.3-0.4,0.7-0.8,1.3-1.4c0.5-0.5,0.9-1,1.2-1.4
			s0.4-0.8,0.4-1.3c0-0.3-0.1-0.6-0.2-0.8s-0.3-0.5-0.6-0.6s-0.5-0.2-0.9-0.2c-0.2,0-0.4,0.1-0.6,0.2c-0.2,0.1-0.4,0.2-0.5,0.4
			s-0.2,0.4-0.2,0.6c0,0.2,0.1,0.4,0.2,0.5s0.3,0.2,0.5,0.2c0.1,0,0.2,0,0.2,0c0.1,0,0.1-0.1,0.2-0.1s0.1-0.1,0.1-0.1
			c0.1,0.2,0.1,0.3,0.1,0.3c0,0,0,0,0,0s0,0,0,0.1c0,0.5-0.2,0.7-0.7,0.7c-0.3,0-0.6-0.1-0.7-0.4s-0.3-0.5-0.3-0.9
			C66.6,91.1,66.7,90.8,66.9,90.5z"/>
		<path class="st1" d="M73,90.1c0.1-0.2,0.3-0.3,0.5-0.4s0.4-0.1,0.6-0.1c0.5,0,1,0.2,1.4,0.5c0.4,0.4,0.7,0.8,0.9,1.4
			s0.3,1.1,0.3,1.7c0,0.6-0.1,1.2-0.3,1.8c-0.2,0.6-0.5,1.1-0.9,1.5s-0.9,0.6-1.5,0.6c-0.3,0-0.7-0.1-1.1-0.4s-0.7-0.7-1-1.2
			c-0.3-0.5-0.4-1.1-0.4-1.9c0-0.2,0-0.5,0.1-0.9c0.1-0.4,0.2-0.7,0.3-1.1s0.3-0.6,0.5-0.8c0,0,0,0.3-0.1,0.7
			c-0.1,0.4-0.1,0.8-0.1,1c0,0.5,0.1,1,0.2,1.7s0.4,1.2,0.8,1.6s0.8,0.7,1.3,0.7c0.4,0,0.7-0.1,0.9-0.4c0.3-0.3,0.4-0.6,0.6-1
			c0.1-0.4,0.2-0.8,0.2-1.1c0-0.3,0-0.7-0.1-1.2c-0.1-0.5-0.2-1-0.4-1.5s-0.4-0.9-0.7-1.2s-0.6-0.5-1-0.5c-0.2,0-0.3,0.1-0.5,0.2
			s-0.2,0.2-0.2,0.4c0,0.2,0.2,0.3,0.5,0.3c0.1,0,0.1,0,0.2,0V91c-0.2,0.2-0.4,0.3-0.5,0.3c-0.2,0-0.3-0.1-0.4-0.2s-0.2-0.3-0.2-0.5
			C72.8,90.4,72.9,90.2,73,90.1z"/>
		<path class="st1" d="M78.7,90.1c0.1-0.2,0.3-0.3,0.5-0.4s0.4-0.1,0.6-0.1c0.5,0,1,0.2,1.4,0.5c0.4,0.4,0.7,0.8,0.9,1.4
			s0.3,1.1,0.3,1.7c0,0.6-0.1,1.2-0.3,1.8c-0.2,0.6-0.5,1.1-0.9,1.5s-0.9,0.6-1.5,0.6c-0.3,0-0.7-0.1-1.1-0.4s-0.7-0.7-1-1.2
			c-0.3-0.5-0.4-1.1-0.4-1.9c0-0.2,0-0.5,0.1-0.9c0.1-0.4,0.2-0.7,0.3-1.1s0.3-0.6,0.5-0.8c0,0,0,0.3-0.1,0.7
			c-0.1,0.4-0.1,0.8-0.1,1c0,0.5,0.1,1,0.2,1.7s0.4,1.2,0.8,1.6s0.8,0.7,1.3,0.7c0.4,0,0.7-0.1,0.9-0.4c0.3-0.3,0.4-0.6,0.6-1
			c0.1-0.4,0.2-0.8,0.2-1.1c0-0.3,0-0.7-0.1-1.2c-0.1-0.5-0.2-1-0.4-1.5s-0.4-0.9-0.7-1.2s-0.6-0.5-1-0.5c-0.2,0-0.3,0.1-0.5,0.2
			S79,90.2,79,90.3c0,0.2,0.2,0.3,0.5,0.3c0.1,0,0.1,0,0.2,0V91c-0.2,0.2-0.4,0.3-0.5,0.3c-0.2,0-0.3-0.1-0.4-0.2s-0.2-0.3-0.2-0.5
			C78.5,90.4,78.6,90.2,78.7,90.1z"/>
		<path class="st1" d="M83.5,90.1c0.3-0.2,0.7-0.4,1.1-0.4s0.9-0.1,1.6-0.1s1.1-0.1,1.3-0.1c-0.2,0.3-0.3,0.5-0.5,0.6
			s-0.4,0.2-0.6,0.2h-1.9c-0.2,0-0.4,0.1-0.6,0.3c-0.2,0.2-0.4,0.4-0.4,0.7c0,0.3,0.1,0.5,0.4,0.7s0.6,0.3,0.9,0.4s0.5,0.1,0.6,0.1
			c0.1,0,0.3-0.1,0.5-0.2s0.4-0.3,0.5-0.4s0.2-0.4,0.2-0.6c0-0.1,0-0.2-0.1-0.4s-0.1-0.2-0.1-0.2c0.1,0,0.2,0,0.4,0
			c0.1,0,0.3,0.1,0.3,0.2c0.1,0.1,0.1,0.2,0.1,0.4c0,0.2,0,0.3-0.1,0.4c-0.1,0.1-0.2,0.3-0.5,0.4c-0.2,0.2-0.4,0.3-0.5,0.4
			c0.1,0.1,0.2,0.2,0.5,0.3s0.5,0.3,0.7,0.4s0.3,0.3,0.5,0.5s0.2,0.5,0.2,0.9c0,0.4-0.1,0.8-0.4,1.2c-0.2,0.3-0.6,0.6-1,0.8
			S85.8,97,85.4,97c-0.4,0-0.8-0.1-1.1-0.2s-0.6-0.4-0.8-0.7c-0.2-0.3-0.3-0.7-0.3-1.1c0-0.3,0-0.6,0.1-0.8c0.1-0.2,0.2-0.4,0.4-0.5
			c0.1-0.1,0.3-0.3,0.5-0.4s0.4-0.2,0.4-0.3c-0.2-0.2-0.4-0.3-0.8-0.5c-0.3-0.2-0.5-0.3-0.6-0.5c-0.1-0.2-0.2-0.4-0.2-0.9
			C83.1,90.7,83.2,90.3,83.5,90.1z M84.7,93.5c-0.3,0.2-0.5,0.4-0.7,0.6s-0.3,0.5-0.3,0.9c0,0.5,0.2,0.9,0.5,1.2
			c0.3,0.3,0.7,0.5,1.2,0.5c0.2,0,0.4-0.1,0.6-0.2s0.5-0.3,0.7-0.5s0.3-0.5,0.3-0.8c0-0.4-0.1-0.7-0.3-1s-0.5-0.5-0.8-0.6
			c-0.3-0.1-0.5-0.2-0.7-0.2C85.1,93.3,84.9,93.4,84.7,93.5z"/>
	</g>
</g>
</svg>
