<?xml version="1.0" encoding="utf-8"?>
<!-- Generator: Adobe Illustrator 21.0.2, SVG Export Plug-In . SVG Version: 6.00 Build 0)  -->
<svg version="1.1" id="Layer_1" xmlns="http://www.w3.org/2000/svg" xmlns:xlink="http://www.w3.org/1999/xlink" x="0px" y="0px"
	 viewBox="0 0 134.9 105.1" style="enable-background:new 0 0 134.9 105.1;" xml:space="preserve">
<style type="text/css">
	.st0{fill:none;}
	.st1{fill:#6B6251;}
	.st2{font-family:'Harrington';}
	.st3{font-size:46px;}
	.st4{font-size:12px;}
</style>
<g>
	<path class="st0" d="M4.7,51c-1.4,0-2.1,1.8-1,2.5c1.3,0.8,3.2-0.4,2.5-1.6C5.8,51.4,5.2,51,4.7,51z"/>
	<path class="st0" d="M15.5,40c-0.3-2.5-0.4-2.4-3.7,1.9c-2.5,3.4-3.1,4.9-2.4,6c1.4,2.2,4.5,2.7,3.7,0.7c-0.4-1.1-0.1-1.6,1-1.6
		c2.1,0,3.2,2.8,1.8,4.2c-0.8,0.8-0.8,1.5-0.1,2.5c1.5,1.7,0.4,4.3-1.7,4.3c-1.1,0-1.4-0.5-1-1.6c0.8-2-2.3-1.5-3.7,0.7
		c-0.7,1.2-0.1,2.7,2.7,6.3l3.6,4.8v-3.1c0-1.7,0.7-5.1,1.6-7.7c1.4-4.3,1.4-5.2,0-9.8C16.5,44.8,15.6,41.4,15.5,40z"/>
	<path class="st0" d="M55.7,18.5c-12.2,4-18.2,5.4-24.3,5.6c-5,0.2-6.1,0.6-8.2,3.1c-4.9,5.8-4.5,12.6,1.3,20.3l3.8,5l-3.8,5
		c-5.8,7.6-6.2,14.5-1.3,20.4c2.1,2.4,3.2,2.8,8.2,3c6.4,0.2,9.5,0.9,23.1,5.2c6.1,1.9,9.7,2.8,13.4,2.7V16.2
		C64.2,16,60.9,16.8,55.7,18.5z"/>
	<path class="st1" d="M32.1,12.8c1.4,0.6,3.2,2.2,4.1,3.6c1.4,2.1,2,2.3,4.4,1.5c1.5-0.5,4.5-2.8,6.6-4.9c2.3-2.3,4.8-4,6-3.9
		c1.7,0.1,1.8,0.2,0.2,0.6c-1,0.3-1.6,1-1.4,1.6c0.5,1.5,2,1.8,3.7,0.7c2.1-1.3-0.1-4.6-2.9-4.3c-1.9,0.3-2,0-1.1-1.7
		c2.9-5.4,12-5.3,12,0.2c0,1.4-0.5,1.7-2.4,1.2c-2.9-0.7-4.4,1.2-2.4,3.2c2.1,2.1,6.6,0.2,7.4-3.1c0.5-1.9,0.1-3.2-1.7-5.1
		c-3-3.2-7.8-3.2-11.7,0.1c-1.7,1.4-4.2,4.6-5.7,7c-3,5.2-3.8,5.7-2.2,1.6c0.8-2.3,0.8-3.3-0.2-4.5c-1.9-2.3-3.1-1-3.2,3.7
		c-0.2,3-0.3,3.4-0.6,1.4c-0.6-3.9-3.3-3.5-3.3,0.4v3.2l-2.1-2.7c-1.1-1.4-2.9-2.6-4-2.6C28.9,10,29.2,11.5,32.1,12.8z"/>
	<path class="st1" d="M54.5,86.1c-13.6-4.3-16.7-5-23.1-5.2c-5-0.2-6.1-0.6-8.2-3c-4.9-5.9-4.5-12.8,1.3-20.4l3.8-5l-3.8-5
		c-5.8-7.7-6.2-14.5-1.3-20.3c2.1-2.5,3.2-2.9,8.2-3.1c6.1-0.2,12.1-1.6,24.3-5.6c5.2-1.7,8.5-2.5,12.2-2.3v-3.7
		c-3.6-0.1-7-0.1-8.7,0.1c-1.6,0.3-4.5,1.2-6.2,2c-10.7,4.9-25.1,8.9-22.5,6.3c1.4-1.5,1.6-4.9,0.2-4.9c-0.5,0-1,0.9-1,2
		c0,1.4-0.7,2-2.1,2c-1.5,0-2-0.5-1.7-2.3c0.2-1.6,1.1-2.3,3.2-2.5c1.6-0.2,3.3,0.1,3.9,0.7s1.6,1.1,2.2,1.1c0.5-0.1-0.1-1-1.4-2
		c-1.3-1.1-3.3-2-4.5-2c-4.6,0.1-7.3,4.9-4.4,7.8c0.9,0.9,0.9,1.2,0,1.2c-0.6,0-2.7,2.1-4.7,4.6c-2,2.8-3.5,4-3.5,3
		c0-0.9,0.5-1.6,1-1.6c1.3,0,1.3-4.7-0.1-5.5c-0.6-0.4-1.3,0.2-1.6,1.3c-0.4,1.8-0.8,1.9-2.9,1c-1.3-0.6-2.7-0.8-3.2-0.3
		c-0.4,0.4-0.1,1,0.6,1.2c0.6,0.3,1.2,1.3,1.2,2.4c0,1,0.4,1.9,1,1.9c0.5,0,1.2,1.1,1.6,2.5c0.6,2.6-0.9,5.5-2.9,5.5
		c-0.7,0-0.7-0.4,0.1-1.2C13.3,35,13,34,10.7,34c-2.4,0-2.8,3.5-0.5,4.8c1.4,0.7,1.3,1.1-0.5,3.2c-2.4,2.8-3.5,6.4-2.4,8.2
		c0.6,1,0.4,1-0.9,0c-1.4-1.2-2-1.1-4,0.5L0,52.5l2.4,1.9c2,1.5,2.7,1.6,4,0.4c1.4-1,1.5-1,0.9,0c-1.1,1.8,0,5.4,2.4,8.2
		c1.8,2.1,1.9,2.5,0.5,3.2C7.9,67.5,8.3,71,10.7,71c2.3,0,2.6-1,0.8-2.8c-0.8-0.8-0.8-1.2-0.1-1.2c2,0,3.5,2.9,2.9,5.5
		c-0.4,1.4-1.1,2.5-1.6,2.5c-0.6,0-1,0.9-1,1.9c0,1.1-0.6,2.1-1.2,2.4c-0.7,0.2-1,0.8-0.6,1.2c0.5,0.5,1.9,0.3,3.2-0.3
		c2.1-0.9,2.5-0.8,2.9,1c0.3,1.1,1,1.7,1.6,1.3C19,81.7,19,77,17.7,77c-0.5,0-1-0.7-1-1.6c0-1,1.5,0.2,3.5,3c2,2.5,4.1,4.6,4.7,4.6
		c0.9,0,0.9,0.3,0,1.2c-2.9,2.9-0.2,7.7,4.4,7.8c1.2,0,3.2-0.9,4.5-2c1.3-1,1.9-1.9,1.4-2c-0.6,0-1.6,0.5-2.2,1.1
		c-0.6,0.6-2.3,0.9-3.9,0.7c-2.1-0.2-3-0.9-3.2-2.6c-0.3-1.7,0.2-2.2,1.7-2.2c1.4,0,2.1,0.6,2.1,2c0,1.1,0.5,2,1,2
		c1.4,0,1.2-3.4-0.2-4.9c-1.1-1-0.5-1.1,2.7-0.6c4.6,0.9,19.3,6.2,21.4,7.9c0.9,0.7,7.2,1.1,13.3,1v-3.7
		C64.2,88.9,60.6,88,54.5,86.1z M3.7,53.5c-1.1-0.7-0.4-2.5,1-2.5c0.5,0,1.1,0.4,1.5,0.9C6.9,53.1,5,54.3,3.7,53.5z M17.3,57.4
		c-0.9,2.6-1.6,6-1.6,7.7v3.1l-3.6-4.8c-2.8-3.6-3.4-5.1-2.7-6.3c1.4-2.2,4.5-2.7,3.7-0.7c-0.4,1.1-0.1,1.6,1,1.6
		c2.1,0,3.2-2.6,1.7-4.3c-0.7-1-0.7-1.7,0.1-2.5c1.4-1.4,0.3-4.2-1.8-4.2c-1.1,0-1.4,0.5-1,1.6c0.8,2-2.3,1.5-3.7-0.7
		c-0.7-1.1-0.1-2.6,2.4-6c3.3-4.3,3.4-4.4,3.7-1.9c0.1,1.4,1,4.8,1.8,7.6C18.7,52.2,18.7,53.1,17.3,57.4z"/>
	<path class="st1" d="M58.9,94.4c-2,2-0.5,3.9,2.4,3.2c1.9-0.5,2.4-0.2,2.4,1.2c0,5.5-9.1,5.6-12,0.2c-0.9-1.7-0.8-2,1.1-1.7
		c2.8,0.3,5-3,2.9-4.3c-1.7-1.1-3.2-0.8-3.7,0.7c-0.2,0.6,0.4,1.3,1.4,1.6c1.6,0.4,1.5,0.5-0.2,0.6c-1.2,0.1-3.7-1.6-6-3.9
		c-2.1-2.1-5.1-4.4-6.6-4.9c-2.4-0.8-3-0.6-4.4,1.5c-0.9,1.4-2.7,3-4.1,3.6c-2.9,1.3-3.2,2.8-0.5,2.8c1.1,0,2.9-1.2,4-2.6l2.1-2.7
		v3.2c0,3.9,2.7,4.3,3.3,0.3c0.3-1.9,0.4-1.5,0.6,1.5c0.1,4.7,1.3,6,3.2,3.7c1-1.2,1-2.2,0.2-4.5c-1.6-4.1-0.8-3.6,2.2,1.6
		c5.5,9.2,12.7,12.2,17.4,7.1c1.8-1.9,2.2-3.2,1.7-5.1C65.5,94.2,61,92.3,58.9,94.4z"/>
	<path class="st0" d="M130.2,51c1.4,0,2.1,1.8,1,2.5c-1.3,0.8-3.2-0.4-2.5-1.6C129.1,51.4,129.7,51,130.2,51z"/>
	<path class="st0" d="M119.4,40c0.3-2.5,0.4-2.4,3.7,1.9c2.5,3.4,3.1,4.9,2.4,6c-1.4,2.2-4.5,2.7-3.7,0.7c0.4-1.1,0.1-1.6-1-1.6
		c-2.1,0-3.2,2.8-1.8,4.2c0.8,0.8,0.8,1.5,0.1,2.5c-1.5,1.7-0.4,4.3,1.7,4.3c1.1,0,1.4-0.5,1-1.6c-0.8-2,2.3-1.5,3.7,0.7
		c0.7,1.2,0.1,2.7-2.7,6.3l-3.6,4.8v-3.1c0-1.7-0.7-5.1-1.6-7.7c-1.4-4.3-1.4-5.2,0-9.8C118.4,44.8,119.3,41.4,119.4,40z"/>
	<path class="st0" d="M79.2,18.5c12.2,4,18.2,5.4,24.3,5.6c5,0.2,6.1,0.6,8.2,3.1c4.9,5.8,4.5,12.6-1.3,20.3l-3.8,5l3.8,5
		c5.8,7.6,6.2,14.5,1.3,20.4c-2.1,2.4-3.2,2.8-8.2,3c-6.4,0.2-9.5,0.9-23.1,5.2c-6.1,1.9-9.7,2.8-13.4,2.7V16.2
		C70.7,16,74,16.8,79.2,18.5z"/>
	<path class="st1" d="M102.8,12.8c-1.4,0.6-3.2,2.2-4.1,3.6c-1.4,2.1-2,2.3-4.4,1.5c-1.5-0.5-4.5-2.8-6.6-4.9c-2.3-2.3-4.8-4-6-3.9
		c-1.7,0.1-1.8,0.2-0.2,0.6c1,0.3,1.6,1,1.4,1.6c-0.5,1.5-2,1.8-3.7,0.7c-2.1-1.3,0.1-4.6,2.9-4.3c1.9,0.3,2,0,1.1-1.7
		c-2.9-5.4-12-5.3-12,0.2c0,1.4,0.5,1.7,2.4,1.2c2.9-0.7,4.4,1.2,2.4,3.2c-2.1,2.1-6.6,0.2-7.4-3.1c-0.5-1.9-0.1-3.2,1.7-5.1
		c3-3.2,7.8-3.2,11.7,0.1c1.7,1.4,4.2,4.6,5.7,7c3,5.2,3.8,5.7,2.2,1.6c-0.8-2.3-0.8-3.3,0.2-4.5c1.9-2.3,3.1-1,3.2,3.7
		c0.2,3,0.3,3.4,0.6,1.4c0.6-3.9,3.3-3.5,3.3,0.4v3.2l2.1-2.7c1.1-1.4,2.9-2.6,4-2.6C106,10,105.7,11.5,102.8,12.8z"/>
	<path class="st1" d="M67,88.8v3.7c6.1,0,12.4-0.3,13.3-1c2.1-1.7,16.8-7,21.4-7.9c3.2-0.5,3.8-0.4,2.7,0.6
		c-1.4,1.5-1.6,4.9-0.2,4.9c0.5,0,1-0.9,1-2c0-1.4,0.7-2,2.1-2c1.5,0,2,0.5,1.7,2.2c-0.2,1.7-1.1,2.4-3.2,2.6
		c-1.6,0.2-3.3-0.1-3.9-0.7s-1.6-1.1-2.2-1.1c-0.5,0.1,0.1,1,1.4,2c1.3,1.1,3.3,2,4.5,2c4.6-0.1,7.3-4.9,4.4-7.8
		c-0.9-0.9-0.9-1.2,0-1.2c0.6,0,2.7-2.1,4.7-4.6c2-2.8,3.5-4,3.5-3c0,0.9-0.5,1.6-1,1.6c-1.3,0-1.3,4.7,0.1,5.5
		c0.6,0.4,1.3-0.2,1.6-1.3c0.4-1.8,0.8-1.9,2.9-1c1.3,0.6,2.7,0.8,3.2,0.3c0.4-0.4,0.1-1-0.6-1.2c-0.6-0.3-1.2-1.3-1.2-2.4
		c0-1-0.4-1.9-1-1.9c-0.5,0-1.2-1.1-1.6-2.5c-0.6-2.6,0.9-5.5,2.9-5.5c0.7,0,0.7,0.4-0.1,1.2c-1.8,1.8-1.5,2.8,0.8,2.8
		c2.4,0,2.8-3.5,0.5-4.8c-1.4-0.7-1.3-1.1,0.5-3.2c2.4-2.8,3.5-6.4,2.4-8.2c-0.6-1-0.5-1,0.9,0c1.3,1.2,2,1.1,4-0.4l2.4-1.9
		l-2.4-1.8c-2-1.6-2.6-1.7-4-0.5c-1.3,1-1.5,1-0.9,0c1.1-1.8,0-5.4-2.4-8.2c-1.8-2.1-1.9-2.5-0.5-3.2c2.3-1.3,1.9-4.8-0.5-4.8
		c-2.3,0-2.6,1-0.8,2.8c0.8,0.8,0.8,1.2,0.1,1.2c-2,0-3.5-2.9-2.9-5.5c0.4-1.4,1.1-2.5,1.6-2.5c0.6,0,1-0.9,1-1.9
		c0-1.1,0.6-2.1,1.2-2.4c0.7-0.2,1-0.8,0.6-1.2c-0.5-0.5-1.9-0.3-3.2,0.3c-2.1,0.9-2.5,0.8-2.9-1c-0.3-1.1-1-1.7-1.6-1.3
		c-1.4,0.8-1.4,5.5-0.1,5.5c0.5,0,1,0.7,1,1.6c0,1-1.5-0.2-3.5-3c-2-2.5-4.1-4.6-4.7-4.6c-0.9,0-0.9-0.3,0-1.2
		c2.9-2.9,0.2-7.7-4.4-7.8c-1.2,0-3.2,0.9-4.5,2c-1.3,1-1.9,1.9-1.4,2c0.6,0,1.6-0.5,2.2-1.1s2.3-0.9,3.9-0.7c2.1,0.2,3,0.9,3.2,2.5
		c0.3,1.8-0.2,2.3-1.7,2.3c-1.4,0-2.1-0.6-2.1-2c0-1.1-0.5-2-1-2c-1.4,0-1.2,3.4,0.2,4.9c2.6,2.6-11.8-1.4-22.5-6.3
		c-1.7-0.8-4.6-1.7-6.2-2c-1.7-0.2-5.1-0.2-8.7-0.1v3.7c3.7-0.2,7,0.6,12.2,2.3c12.2,4,18.2,5.4,24.3,5.6c5,0.2,6.1,0.6,8.2,3.1
		c4.9,5.8,4.5,12.6-1.3,20.3l-3.8,5l3.8,5c5.8,7.6,6.2,14.5,1.3,20.4c-2.1,2.4-3.2,2.8-8.2,3c-6.4,0.2-9.5,0.9-23.1,5.2
		C74.3,88,70.7,88.9,67,88.8z M128.7,51.9c0.4-0.5,1-0.9,1.5-0.9c1.4,0,2.1,1.8,1,2.5C129.9,54.3,128,53.1,128.7,51.9z M117.6,47.6
		c0.8-2.8,1.7-6.2,1.8-7.6c0.3-2.5,0.4-2.4,3.7,1.9c2.5,3.4,3.1,4.9,2.4,6c-1.4,2.2-4.5,2.7-3.7,0.7c0.4-1.1,0.1-1.6-1-1.6
		c-2.1,0-3.2,2.8-1.8,4.2c0.8,0.8,0.8,1.5,0.1,2.5c-1.5,1.7-0.4,4.3,1.7,4.3c1.1,0,1.4-0.5,1-1.6c-0.8-2,2.3-1.5,3.7,0.7
		c0.7,1.2,0.1,2.7-2.7,6.3l-3.6,4.8v-3.1c0-1.7-0.7-5.1-1.6-7.7C116.2,53.1,116.2,52.2,117.6,47.6z"/>
	<path class="st1" d="M76,94.4c2,2,0.5,3.9-2.4,3.2c-1.9-0.5-2.4-0.2-2.4,1.2c0,5.5,9.1,5.6,12,0.2c0.9-1.7,0.8-2-1.1-1.7
		c-2.8,0.3-5-3-2.9-4.3c1.7-1.1,3.2-0.8,3.7,0.7c0.2,0.6-0.4,1.3-1.4,1.6c-1.6,0.4-1.5,0.5,0.2,0.6c1.2,0.1,3.7-1.6,6-3.9
		c2.1-2.1,5.1-4.4,6.6-4.9c2.4-0.8,3-0.6,4.4,1.5c0.9,1.4,2.7,3,4.1,3.6c2.9,1.3,3.2,2.8,0.5,2.8c-1.1,0-2.9-1.2-4-2.6l-2.1-2.7v3.2
		c0,3.9-2.7,4.3-3.3,0.3c-0.3-1.9-0.4-1.5-0.6,1.5c-0.1,4.7-1.3,6-3.2,3.7c-1-1.2-1-2.2-0.2-4.5c1.6-4.1,0.8-3.6-2.2,1.6
		c-5.5,9.2-12.7,12.2-17.4,7.1c-1.8-1.9-2.2-3.2-1.7-5.1C69.4,94.2,73.9,92.3,76,94.4z"/>
	<rect x="22.9" y="36.9" class="st0" width="88.5" height="48.2"/>
	<text transform="matrix(1 0 0 1 24.7844 69.0837)" class="st1 st2 st3">SHG</text>
	<rect x="39.7" y="73.8" class="st0" width="54.8" height="16"/>
	<text transform="matrix(1 0 0 1 45.8103 82.1771)" class="st1 st2 st4">Est. 2008</text>
</g>
</svg>
