<?xml version="1.0" encoding="utf-8"?>
<!-- Generator: Adobe Illustrator 21.0.2, SVG Export Plug-In . SVG Version: 6.00 Build 0)  -->
<svg version="1.1" id="Layer_1" xmlns="http://www.w3.org/2000/svg" xmlns:xlink="http://www.w3.org/1999/xlink" x="0px" y="0px"
	 viewBox="0 0 134.9 134.9" style="enable-background:new 0 0 134.9 134.9;" xml:space="preserve">
<style type="text/css">
	.st0{fill:#B8B58F;}
</style>
<g transform="translate(0.000000,269.000000) scale(0.100000,-0.100000)">
	<path class="st0" d="M371.1,2484.9l-56-56h-24.7c-29.4,0-48.5-8.9-56-25.7c-4.2-8.9-5.6-119-5.6-443.9c0-469.1-0.9-450.9,25.7-463
		c17.3-7.9,822.9-7.9,840.2,0c26.6,12.1,25.7-6.1,25.7,463.5s0.9,451.4-25.7,463.5c-6.5,3.3-22.9,5.6-36.4,5.6H1034l-56,56l-56,56
		H674.5H427.1L371.1,2484.9z M886.9,2506.8c-6.5-6.1-53.7-50.9-105-99.4s-97.1-91-101.3-94.3c-6.5-5.6-20.1,5.6-109.7,90.6
		c-56,53.2-106,100.4-111.1,105c-8.9,8.9-3.7,8.9,214.7,8.9h224.1L886.9,2506.8z M585.8,2357.5l70-67.7l-36.9-37.8l-37.3-37.3
		l-44.3,41.5c-24.7,22.9-76.1,71.9-114.8,108.8l-70,67.7l36.9,37.8l37.3,37.3l44.3-41.5C495.7,2443.4,547.5,2394.4,585.8,2357.5z
		 M994.2,2432.6c0-1.9-50.9-51.8-113-111.1l-113.4-107.4l-35.9,35.9c-20.1,20.1-36.4,37.8-36.4,39.7s50.9,51.8,113,111.1
		l113.4,107.4l35.9-35.9C977.9,2452.2,994.2,2434.5,994.2,2432.6z M463.5,2293.5L581.1,2182l10.3,9.8l10.7,9.8V1858v-344H434.6
		c-146.6,0-169,0.9-175,7.5c-6.5,6.5-7.5,52.7-7.5,438.3s0.9,431.8,7.5,438.3c5.6,5.6,16.8,7.5,46.7,7.5H346L463.5,2293.5z
		 M1089.5,2398.1c6.5-6.5,7.5-52.7,7.5-438.3s-0.9-431.8-7.5-438.3c-6.1-6.5-28.9-7.5-177.4-7.5H742.2v346.3v346.3l13.1-12.6
		l12.6-12.1l116.7,111.6l116.7,111.6h40.6C1072.7,2405.6,1083.9,2403.7,1089.5,2398.1z M718.8,1872.5V1514h-46.7h-46.6v355.7v355.7
		l24.3,24.7l24.3,24.7l22.4-21.9l22.4-21.9v-358.5H718.8z"/>
	<path class="st0" d="M643.7,2168c-9.3-9.3-13.5-18.2-13.5-28.5c0-20.1,21.9-42,42-42s42,21.9,42,42s-21.9,42-42,42
		C661.9,2181.5,653,2177.3,643.7,2168z M686.2,2151.2c12.1-14.9-6.1-37.8-21.9-27.5c-16.3,10.3-10.7,34.5,7.9,34.5
		C676.8,2158.2,682.9,2154.9,686.2,2151.2z"/>
	<path class="st0" d="M643.7,1920.6c-9.3-9.3-13.5-18.2-13.5-28.5c0-20.1,21.9-42,42-42s42,21.9,42,42c0,10.3-4.2,19.1-13.5,28.5
		C682,1938.8,662.4,1938.8,643.7,1920.6z M686.2,1903.8c12.1-14.9-6.1-37.8-21.9-27.5c-16.3,10.3-10.7,34.5,7.9,34.5
		C676.8,1910.8,682.9,1907.5,686.2,1903.8z"/>
	<path class="st0" d="M643.7,1673.2c-9.3-9.3-13.5-18.2-13.5-28.5c0-20.1,21.9-42,42-42s42,21.9,42,42s-21.9,42-42,42
		C661.9,1686.7,653,1682.5,643.7,1673.2z M686.2,1656.4c12.1-14.9-6.1-37.8-21.9-27.5c-10.7,6.5-13.1,19.1-6.1,27.5
		C665.6,1665.3,678.7,1665.3,686.2,1656.4z"/>
</g>
</svg>
