<?xml version="1.0" encoding="utf-8"?>
<!-- Generator: Adobe Illustrator 21.0.2, SVG Export Plug-In . SVG Version: 6.00 Build 0)  -->
<svg version="1.1" id="Layer_1" xmlns="http://www.w3.org/2000/svg" xmlns:xlink="http://www.w3.org/1999/xlink" x="0px" y="0px"
	 viewBox="0 0 191 225.1" style="enable-background:new 0 0 191 225.1;" xml:space="preserve">
<g transform="translate(0.000000,269.000000) scale(0.100000,-0.100000)">
	<path d="M305,2570l-120-120h-53c-63,0-104-19-120-55c-9-19-12-255-12-951C0,439-2,478,55,452c37-17,1763-17,1800,0
		c57,26,55-13,55,993s2,967-55,993c-14,7-49,12-78,12h-52l-120,120l-120,120H955H425L305,2570z M1410,2617c-14-13-115-109-225-213
		s-208-195-217-202c-14-12-43,12-235,194c-120,114-227,215-238,225c-19,19-8,19,460,19h480L1410,2617z M765,2297l150-145l-79-81
		l-80-80l-95,89c-53,49-163,154-246,233l-150,145l79,81l80,80l95-89C572,2481,683,2376,765,2297z M1640,2458c0-4-109-111-242-238
		l-243-230l-77,77c-43,43-78,81-78,85s109,111,242,238l243,230l77-77C1605,2500,1640,2462,1640,2458z M503,2160l252-239l22,21l23,21
		v-736V490H441c-314,0-362,2-375,16c-14,14-16,113-16,939s2,925,16,939c12,12,36,16,100,16h85L503,2160z M1844,2384
		c14-14,16-113,16-939s-2-925-16-939c-13-14-62-16-380-16h-364v742v742l28-27l27-26l250,239l250,239h87
		C1808,2400,1832,2396,1844,2384z M1050,1258V490H950H850v762v762l52,53l52,53l48-47l48-47V1258z"/>
	<path d="M889,1891c-20-20-29-39-29-61c0-43,47-90,90-90s90,47,90,90s-47,90-90,90C928,1920,909,1911,889,1891z M980,1855
		c26-32-13-81-47-59c-35,22-23,74,17,74C960,1870,973,1863,980,1855z"/>
	<path d="M889,1361c-20-20-29-39-29-61c0-43,47-90,90-90s90,47,90,90c0,22-9,41-29,61C971,1400,929,1400,889,1361z M980,1325
		c26-32-13-81-47-59c-35,22-23,74,17,74C960,1340,973,1333,980,1325z"/>
	<path d="M889,831c-20-20-29-39-29-61c0-43,47-90,90-90s90,47,90,90s-47,90-90,90C928,860,909,851,889,831z M980,795
		c26-32-13-81-47-59c-23,14-28,41-13,59C936,814,964,814,980,795z"/>
</g>
</svg>
