<?xml version="1.0" encoding="utf-8"?>
<!-- Generator: Adobe Illustrator 21.0.2, SVG Export Plug-In . SVG Version: 6.00 Build 0)  -->
<svg version="1.1" id="Layer_1" xmlns="http://www.w3.org/2000/svg" xmlns:xlink="http://www.w3.org/1999/xlink" x="0px" y="0px"
	 viewBox="0 0 1295.1 421.8" style="enable-background:new 0 0 1295.1 421.8;" xml:space="preserve">
<style type="text/css">
	.st0{fill:#D9D7BF;}
</style>
<g transform="translate(0.000000,449.000000) scale(0.100000,-0.100000)">
	<path class="st0" d="M6924.6,4476.5c-64-33-179-151-217-222c-64-123-124-380-147-638c-6-66-26-268-45-450c-19-181-41-418-50-525
		l-17-195l-86-125c-47-69-143-205-214-303c-94-130-128-185-128-206c0-50,74-119,150-141c27-8,33-5,63,33c19,23,69,93,111,155
		c43,62,79,112,81,110c1-2-6-86-16-188c-105-1050-137-1426-125-1438c17-17,149-35,202-27c23,3,48,14,57,23c14,17,27,137,62,585
		c7,93,15,170,17,173c3,2,24-24,48-58c151-219,269-374,314-416c109-99,269-149,446-139c217,12,379,117,516,335c37,59,73,113,80,121
		c14,16,17,27-51-264c-75-322-75-323-56-345c20-24,111-43,164-34c34,5,41,12,66,62c16,32,59,138,96,237c279,744,474,1135,664,1336
		c58,61,62,63,78,46c16-16,18-36,13-205c-2-103-5-322-5-487c0-325,10-426,61-587c45-141,126-212,244-211c134,2,238,93,351,306l47,90
		l22-44c64-126,185-266,266-307c97-49,182-67,324-67c115,0,145,3,202,23c88,31,167,89,212,156c46,70,128,245,168,359l31,87h68
		c148,0,273,53,401,168l38,34v-73c0-125,19-351,35-430c25-124,75-262,114-319s115-112,181-130c176-50,310-32,500,66
		c159,81,278,194,402,378c67,101,68,108,21,221c-47,112-78,124-119,42c-41-81-114-174-211-268c-140-136-241-192-371-205
		c-49-5-64-2-112,23c-111,57-133,131-150,503c-12,243-2,530,30,885c25,267,89,788,98,796c4,3,183,32,397,63c485,72,652,101,670,116
		c37,30,49,192,18,228l-18,21l-130-24c-71-14-290-47-485-75c-195-27-370-52-387-54c-22-3-33-1-33,7c0,7,11,102,25,212
		c34,273,34,266-17,308c-65,52-150,105-180,112c-23,6-29,3-37-16c-5-13-24-154-41-314c-17-159-34-304-36-321l-6-30l-116-13
		c-64-7-286-29-493-50s-382-42-389-46c-36-22,29-224,84-260c27-18,92-11,753,82c68,9,124,15,127,12c5-5-58-432-79-529
		c-47-225-140-506-212-643c-65-123-193-240-277-254l-37-6l5,39c3,22,8,58,11,82c8,62-12,245-35,330c-44,159-125,268-238,324
		c-56,28-77,33-137,33c-83-1-136-24-184-82c-54-65-75-134-74-248c0-114,17-177,86-310c48-95,166-219,265-279c34-20,62-44,62-51
		c0-23-47-142-82-207c-44-83-106-143-186-181c-58-28-77-32-142-31c-63,1-85,6-138,33c-144,73-206,169-232,361c-9,62-8,105,5,203
		c45,372,172,611,405,769c73,50,81,69,59,145c-13,47-57,103-82,103c-30,0-146-88-255-195c-177-172-260-310-348-585
		c-90-283-127-386-174-501c-145-347-265-405-290-140c-4,47-5,261-1,475c10,560-3,708-73,800c-48,63-104,89-190,90
		c-89,0-162-31-237-101c-83-78-216-260-318-438c-28-49-51-83-51-75s16,113,36,234c35,216,35,220,17,245c-24,31-74,49-139,50
		c-37,1-55-4-66-16c-9-10-36-97-62-193c-125-484-337-935-518-1106c-135-128-294-149-461-61c-103,54-167,136-289,368
		c-58,112-117,223-129,246c-13,23-22,43-19,46c3,2,70,35,150,75c295,144,646,414,824,631c72,88,81,128,43,194
		c-33,56-101,117-130,117c-16,0-40-25-94-98c-111-150-304-332-488-463c-114-81-369-219-381-206c-3,2,8,153,24,334l28,329l51,95
		c106,199,228,495,316,764c152,465,200,843,137,1066c-14,48-47,95-93,133c-34,27-47,31-110,34
		C6976.6,4491.5,6946.6,4487.5,6924.6,4476.5z M7036.6,4219.5c23-44,29-154,15-264c-26-200-103-533-161-698c-41-120-151-398-155-394
		c-2,2,0,51,5,108c5,58,14,170,20,250c22,288,95,748,141,888c20,62,81,142,107,142C7014.6,4251.5,7027.6,4236.5,7036.6,4219.5z
		 M10633.6,1917.5c101-42,154-201,143-430c-3-66-9-123-13-127c-12-12-187,153-218,206c-38,66-55,130-55,215c0,83,13,118,50,137
		C10572.6,1934.5,10593.6,1934.5,10633.6,1917.5z"/>
	<path class="st0" d="M2834.6,3952.5c-105-48-182-198-264-516c-104-406-173-855-224-1475c-17-196-32-321-45-372
		c-71-265-316-598-515-700c-55-29-126-29-163-2c-41,30-86,101-113,180c-46,134-38,462,25,1054c30,281,66,566,74,578
		c3,5,170,24,370,41c201,18,368,34,373,37c19,12,36,64,43,129c6,60,4,74-12,93l-18,23l-160-20c-180-22-555-55-561-48
		c-2,2,15,126,38,276c38,246,41,275,28,299c-19,33-102,74-161,80l-46,4l-52-318c-29-176-54-327-57-336c-4-12-20-18-57-22
		c-80-9-728-36-1041-44c-321-8-312-5-284-91c22-70,103-186,141-204c29-13,86-10,604,36c315,28,576,47,580,43c9-8-46-286-104-521
		c-163-670-368-1150-615-1442c-83-98-169-170-303-253c-143-88-167-108-163-133c4-29,67-47,188-54c134-8,198,7,274,61
		c207,149,401,434,562,826l39,95l12-88c31-242,94-357,258-472c87-61,117-70,225-70c86,0,102,3,162,32c141,67,246,167,370,357l78,120
		v-59c0-62-16-433-25-568c-6-106,4-117,118-117c45,0,87,4,94,8c18,11,39,66,103,267c163,508,422,1107,547,1265
		c89,111,122,145,134,133c6-6,4-149-7-424c-9-228-13-463-10-523c28-489,254-668,644-511l82,34l17-26c32-49,164-152,247-192
		c231-113,437-89,597,69c120,119,254,387,345,689c41,136,40,142-16,175c-53,32-72,13-134-134c-120-285-214-438-319-518
		c-87-67-114-77-197-76c-63,0-85,5-140,31c-59,29-145,99-142,117c1,4,34,33,74,65c244,194,393,450,454,776c23,125,15,332-16,430
		c-49,156-137,266-241,300c-73,24-167,16-239-20c-192-97-336-329-416-670c-26-111-28-136-28-330c-1-204,9-291,44-414l9-31l-72-22
		c-141-43-210-26-254,63c-45,89-48,131-45,688c3,563,0,592-49,655c-31,39-90,66-146,66c-108,0-232-98-352-281
		c-76-114-227-417-316-634c-36-88-70-169-75-180c-6-13-8,51-4,185l6,205l68,105c126,195,192,321,273,520c130,318,222,654,263,960
		c19,149,22,418,5,510c-25,133-82,212-170,238C2973.6,3977.5,2881.6,3973.5,2834.6,3952.5z M2986.6,3730.5c35-39,19-314-32-584
		c-69-359-178-696-328-1015c-23-49-26-52-26-25c0,90,79,679,125,930c54,293,151,659,186,701
		C2928.6,3758.5,2964.6,3754.5,2986.6,3730.5z M4474.6,2109.5c41-66,53-333,21-483c-34-159-101-309-193-430c-67-89-148-172-158-162
		c-3,3-13,55-21,114c-31,231,26,568,130,767c45,88,157,216,188,216C4451.6,2131.5,4466.6,2121.5,4474.6,2109.5z"/>
</g>
</svg>
